<?xml version="1.0" encoding="UTF-8"?>
<svg width="23px" height="22px" viewBox="0 0 23 22" version="1.1" xmlns="http://www.w3.org/2000/svg" xmlns:xlink="http://www.w3.org/1999/xlink">
    <!-- Generator: Sketch 48.2 (47327) - http://www.bohemiancoding.com/sketch -->
    <title>resource/calc</title>
    <desc>Created with Sketch.</desc>
    <defs></defs>
    <g id="Artboard" stroke="none" stroke-width="1" fill="none" fill-rule="evenodd" transform="translate(-373.000000, -237.000000)">
        <g id="Group-4" transform="translate(373.000000, 237.000000)" fill="#000000" fill-rule="nonzero">
            <g id="icon">
                <g id="Group-73">
                    <g id="Group-82">
                        <path d="M19.6428571,18.6810083 C19.6554273,18.6810083 19.6633639,13.3514414 19.6666667,2.69230769 C19.6666667,2.69612766 14.2301587,2.69641739 3.35714286,2.69317688 C3.34457265,2.69317688 3.33663614,8.02274373 3.33333333,18.6818774 C3.33333333,18.6780575 8.76984127,18.6777677 19.6428571,18.6810083 Z M19.6428571,21.3476749 L3.35714286,21.3476749 C1.87677455,21.3476749 0.666666667,20.1603925 0.666666667,18.6818774 L0.666666667,2.69230769 C0.666666667,1.2137926 1.87677455,0.026510213 3.35714286,0.026510213 L19.6428571,0.026510213 C21.1232254,0.026510213 22.3333333,1.2137926 22.3333333,2.69230769 L22.3333333,18.6818774 C22.3333333,20.1603925 21.1232254,21.3476749 19.6428571,21.3476749 Z M8.78571429,10.6870926 C8.78571429,9.9502399 8.17771429,9.35462842 7.42857143,9.35462842 C6.67942857,9.35462842 6.07142857,9.9502399 6.07142857,10.6870926 C6.07142857,11.4239452 6.67942857,12.0195567 7.42857143,12.0195567 C8.17771429,12.0195567 8.78571429,11.4239452 8.78571429,10.6870926 Z M12.8571429,10.6870926 C12.8571429,9.9502399 12.2491429,9.35462842 11.5,9.35462842 C10.7508571,9.35462842 10.1428571,9.9502399 10.1428571,10.6870926 C10.1428571,11.4239452 10.7508571,12.0195567 11.5,12.0195567 C12.2491429,12.0195567 12.8571429,11.4239452 12.8571429,10.6870926 Z M16.9285714,10.6870926 C16.9285714,9.9502399 16.3205714,9.35462842 15.5714286,9.35462842 C14.8222857,9.35462842 14.2142857,9.9502399 14.2142857,10.6870926 C14.2142857,11.4239452 14.8222857,12.0195567 15.5714286,12.0195567 C16.3205714,12.0195567 16.9285714,11.4239452 16.9285714,10.6870926 Z M8.78571429,14.684485 C8.78571429,13.9476323 8.17771429,13.3520209 7.42857143,13.3520209 C6.67942857,13.3520209 6.07142857,13.9476323 6.07142857,14.684485 C6.07142857,15.4213377 6.67942857,16.0169492 7.42857143,16.0169492 C8.17771429,16.0169492 8.78571429,15.4213377 8.78571429,14.684485 Z M12.8571429,14.684485 C12.8571429,13.9476323 12.2491429,13.3520209 11.5,13.3520209 C10.7508571,13.3520209 10.1428571,13.9476323 10.1428571,14.684485 C10.1428571,15.4213377 10.7508571,16.0169492 11.5,16.0169492 C12.2491429,16.0169492 12.8571429,15.4213377 12.8571429,14.684485 Z M16.9285714,14.684485 C16.9285714,13.9476323 16.3205714,13.3520209 15.5714286,13.3520209 C14.8222857,13.3520209 14.2142857,13.9476323 14.2142857,14.684485 C14.2142857,15.4213377 14.8222857,16.0169492 15.5714286,16.0169492 C16.3205714,16.0169492 16.9285714,15.4213377 16.9285714,14.684485 Z M7.42857143,8.02303346 L15.5714286,8.02303346 C16.3078082,8.02303346 16.9047619,7.4260798 16.9047619,6.68970013 C16.9047619,5.95332046 16.3078082,5.3563668 15.5714286,5.3563668 L7.42857143,5.3563668 C6.69219176,5.3563668 6.0952381,5.95332046 6.0952381,6.68970013 C6.0952381,7.4260798 6.69219176,8.02303346 7.42857143,8.02303346 Z" id="Combined-Shape"></path>
                    </g>
                </g>
            </g>
        </g>
    </g>
</svg>