<?xml version="1.0" encoding="UTF-8"?>
<svg width="16px" height="17px" viewBox="0 0 16 17" version="1.1" xmlns="http://www.w3.org/2000/svg" xmlns:xlink="http://www.w3.org/1999/xlink">
    <!-- Generator: Sketch 48.2 (47327) - http://www.bohemiancoding.com/sketch -->
    <title>Combined Shape</title>
    <desc>Created with Sketch.</desc>
    <defs></defs>
    <g id="Artboard" stroke="none" stroke-width="1" fill="none" fill-rule="evenodd" transform="translate(-592.000000, -2256.000000)">
        <g id="Group-54" transform="translate(592.000000, 2256.000000)" fill="#000000" fill-rule="nonzero">
            <path d="M13.0369625,12.3757065 C12.855274,12.0622512 12.8508363,11.6607006 13.0595489,11.3344809 C13.6704748,10.379598 13.9999,9.26980143 13.9999,8.10886571 C13.9999,4.7978167 11.3137612,2.11342894 7.9999,2.11342894 C4.68603882,2.11342894 1.9999,4.7978167 1.9999,8.10886571 C1.9999,11.4199147 4.68603882,14.1043025 7.9999,14.1043025 C9.10668821,14.1043025 10.1672957,13.8052508 11.0940983,13.247247 C11.3167994,13.1131645 11.5708145,13.0760055 11.8070331,13.1235719 C11.9712526,13.0911242 12.1458774,13.0995246 12.3160422,13.1562092 L13.4185517,13.5234728 L13.0513786,12.4226715 C13.0461682,12.4070504 13.0413647,12.3913916 13.0369625,12.3757065 Z M15.0082896,11.9687326 L15.9486214,14.7878891 C16.2093604,15.5695961 15.4657668,16.3134807 14.6839578,16.0530476 L11.8616445,15.1128898 C10.689674,15.7591573 9.36906837,16.1043025 7.9999,16.1043025 C3.58176118,16.1043025 -9.99999975e-05,12.5247763 -9.99999975e-05,8.10886571 C-9.99999975e-05,3.69295514 3.58176118,0.113428944 7.9999,0.113428944 C12.4180388,0.113428944 15.9999,3.69295514 15.9999,8.10886571 C15.9999,9.47846568 15.6542323,10.7990586 15.0082896,11.9687326 Z M6,8.1095176 C5.44771525,8.1095176 5,7.66180235 5,7.1095176 C5,6.55723285 5.44771525,6.1095176 6,6.1095176 L10,6.1095176 C10.5522847,6.1095176 11,6.55723285 11,7.1095176 C11,7.66180235 10.5522847,8.1095176 10,8.1095176 L6,8.1095176 Z M6,11.1075619 C5.44771525,11.1075619 5,10.6598467 5,10.1075619 C5,9.55527718 5.44771525,9.10756193 6,9.10756193 L8,9.10756193 C8.55228475,9.10756193 9,9.55527718 9,10.1075619 C9,10.6598467 8.55228475,11.1075619 8,11.1075619 L6,11.1075619 Z" id="Combined-Shape"></path>
        </g>
    </g>
</svg>