<?xml version="1.0" encoding="UTF-8"?>
<svg width="24px" height="23px" viewBox="0 0 24 23" version="1.1" xmlns="http://www.w3.org/2000/svg" xmlns:xlink="http://www.w3.org/1999/xlink">
    <!-- Generator: Sketch 48.2 (47327) - http://www.bohemiancoding.com/sketch -->
    <title>resource/cons</title>
    <desc>Created with Sketch.</desc>
    <defs></defs>
    <g id="Artboard" stroke="none" stroke-width="1" fill="none" fill-rule="evenodd" transform="translate(-328.000000, -236.000000)">
        <g id="Group-3" transform="translate(328.000000, 236.000000)" fill="#000000" fill-rule="nonzero">
            <g id="icon">
                <path d="M21.3333333,12.7521934 C22.492234,13.0563819 23.3333333,14.1355455 23.3333333,15.4 L23.3333333,19.6 C23.3333333,21.0964222 22.1553228,22.3333333 20.6666667,22.3333333 L19.3333333,22.3333333 C17.8446772,22.3333333 16.6666667,21.0964222 16.6666667,19.6 L16.6666667,15.4 C16.6666667,14.1355455 17.507766,13.0563819 18.6666667,12.7521934 L18.6666667,10 C18.6666667,6.31904633 15.6809537,3.33333333 12,3.33333333 C8.31904633,3.33333333 5.33333333,6.31904633 5.33333333,10 L5.33333333,12.7521934 C6.492234,13.0563819 7.33333333,14.1355455 7.33333333,15.4 L7.33333333,19.6 C7.33333333,21.0964222 6.15532275,22.3333333 4.66666667,22.3333333 L3.33333333,22.3333333 C1.84467725,22.3333333 0.666666667,21.0964222 0.666666667,19.6 L0.666666667,15.4 C0.666666667,14.1355455 1.507766,13.0563819 2.66666667,12.7521934 L2.66666667,10 C2.66666667,4.846287 6.846287,0.666666667 12,0.666666667 C17.153713,0.666666667 21.3333333,4.846287 21.3333333,10 L21.3333333,12.7521934 Z M4.66666667,19.6666667 C4.65267725,19.6666667 4.66666667,19.6519778 4.66666667,19.6 L4.66666667,15.4 C4.66666667,15.3480222 4.65267725,15.3333333 4.66666667,15.3333333 L3.33333333,15.3333333 C3.34732275,15.3333333 3.33333333,15.3480222 3.33333333,15.4 L3.33333333,19.6 C3.33333333,19.6519778 3.34732275,19.6666667 3.33333333,19.6666667 L4.66666667,19.6666667 Z M20.6666667,19.6666667 C20.6526772,19.6666667 20.6666667,19.6519778 20.6666667,19.6 L20.6666667,15.4 C20.6666667,15.3480222 20.6526772,15.3333333 20.6666667,15.3333333 L19.3333333,15.3333333 C19.3473228,15.3333333 19.3333333,15.3480222 19.3333333,15.4 L19.3333333,19.6 C19.3333333,19.6519778 19.3473228,19.6666667 19.3333333,19.6666667 L20.6666667,19.6666667 Z" id="Combined-Shape"></path>
            </g>
        </g>
    </g>
</svg>