<?xml version="1.0" encoding="UTF-8"?>
<svg width="59px" height="40px" viewBox="0 0 59 40" version="1.1" xmlns="http://www.w3.org/2000/svg" xmlns:xlink="http://www.w3.org/1999/xlink">
    <!-- Generator: Sketch 48.2 (47327) - http://www.bohemiancoding.com/sketch -->
    <title>resource/icon_2</title>
    <desc>Created with Sketch.</desc>
    <defs></defs>
    <g id="Artboard" stroke="none" stroke-width="1" fill="none" fill-rule="evenodd" transform="translate(-460.000000, -619.000000)">
        <g id="Group-13" transform="translate(460.000000, 619.000000)" fill="#393A37">
            <path d="M35.0201524,15.9098592 C36.4940286,14.4321127 38.4185524,13.696338 40.3509429,13.6952113 C42.2833333,13.696338 44.2078571,14.4321127 45.6817333,15.9098592 C47.1556095,17.388169 47.8894571,19.3177465 47.890581,21.2552113 C47.8894571,23.1921127 47.1556095,25.1222535 45.6822952,26.6005634 C44.2078571,28.0783099 42.2833333,28.8140845 40.3509429,28.8152113 C38.4185524,28.8140845 36.4940286,28.0783099 35.0195905,26.6005634 C33.5457143,25.1222535 32.8124286,23.1921127 32.8113048,21.2552113 C32.8124286,19.3177465 33.5457143,17.388169 35.0195905,15.9098592 L34.4239714,15.3126761 L35.0201524,15.9098592 Z M33.8277905,27.795493 C35.6270095,29.6 37.9926286,30.5059155 40.3509429,30.5047887 C42.7086952,30.5059155 45.0748762,29.6 46.8740952,27.795493 C48.6738762,25.9915493 49.5768571,23.6191549 49.5762952,21.2552113 C49.5768571,18.8907042 48.6738762,16.5183099 46.8740952,14.7149296 C45.0748762,12.9104225 42.7086952,12.004507 40.3509429,12.0050704 C37.9931905,12.004507 35.6270095,12.9104225 33.8277905,14.7149296 C32.0280095,16.5188732 31.1244667,18.8907042 31.1255905,21.2552113 C31.1244667,23.6197183 32.0280095,25.9915493 33.8277905,27.795493 Z" id="Fill-7"></path>
            <path d="M21.1326762,13.5019718 C21.1338,13.1222535 21.2748381,12.7498592 21.5630952,12.4597183 L24.8339429,9.18084507 C25.1227619,8.89126761 25.494181,8.74985915 25.8729048,8.74929577 C26.1016,8.74985915 26.3258,8.80788732 26.532581,8.91267606 L21.2961905,14.1628169 C21.1916762,13.955493 21.1332381,13.7312676 21.1326762,13.5019718 Z M52.2228667,9.3515493 C55.5027048,12.6411268 57.1389714,16.9442254 57.1400952,21.2552113 C57.1389714,25.5656338 55.5027048,29.8692958 52.2228667,33.1588732 C48.9419048,36.4473239 44.6495143,38.0867606 40.3492571,38.0878873 C36.0793429,38.0867606 31.8172952,36.4659155 28.5458857,33.2214085 C28.5413905,33.2174648 28.5363333,33.216338 28.5324,33.2123944 L16.6065333,21.2552113 L28.6470286,9.18253521 C28.6571429,9.17408451 28.6695048,9.17126761 28.6790571,9.16169014 C31.9336095,6.00225352 36.1411524,4.42478873 40.3554381,4.42366197 C44.6534476,4.42478873 48.9430286,6.06422535 52.2228667,9.3515493 Z M2.14591429,5.48732394 L16.0474381,19.4259155 L14.8191143,20.6574648 C14.4898381,20.9876056 14.4898381,21.5222535 14.8191143,21.8523944 L27.3546476,34.4219718 C27.3642,34.4309859 27.376,34.4383099 27.3855524,34.4473239 C30.9778095,37.9971831 35.6669048,39.7785915 40.3492571,39.7780282 C45.0748762,39.7791549 49.8089238,37.9695775 53.4146667,34.3538028 C57.0209714,30.7385915 58.8269333,25.9926761 58.8258095,21.2552113 C58.8269333,16.5171831 57.0209714,11.771831 53.4146667,8.15661972 C49.8106095,4.54197183 45.0788095,2.73239437 40.3554381,2.73352113 C35.8332286,2.73295775 31.3070857,4.39661972 27.7654,7.70816901 C27.205181,7.28450704 26.5398857,7.05802817 25.8729048,7.05915493 C25.0682571,7.05802817 24.2557429,7.36957746 23.641581,7.98591549 L20.3712952,11.2647887 C19.7571333,11.8805634 19.4464,12.6952113 19.4469619,13.5019718 C19.4464,14.1633803 19.6666667,14.8242254 20.0807905,15.3819718 L17.2392381,18.2309859 L3.33771429,4.29239437 L5.04140952,2.58478873 L5.2633619,2.80732394 C5.5926381,3.13746479 6.12588571,3.13746479 6.4551619,2.80732394 C6.7844381,2.4771831 6.7844381,1.94197183 6.4551619,1.61183099 L5.63702857,0.792112676 C5.30775238,0.461971831 4.77450476,0.461971831 4.44522857,0.792112676 L0.391647619,4.85633803 C0.0623714286,5.18647887 0.0623714286,5.72112676 0.391647619,6.05126761 C0.720361905,6.38140845 1.25417143,6.38140845 1.58344762,6.05126761 L2.14591429,5.48732394 Z" id="Fill-8"></path>
            <path d="M39.0731714,25.6783099 C39.4024476,26.0084507 39.9356952,26.0084507 40.2649714,25.6783099 L44.5579238,21.3752113 C44.8872,21.0450704 44.8872,20.5098592 44.5579238,20.1797183 C44.2286476,19.8501408 43.6954,19.8501408 43.3661238,20.1797183 L39.0731714,24.4833803 C38.7438952,24.8135211 38.7438952,25.348169 39.0731714,25.6783099" id="Fill-9"></path>
        </g>
    </g>
</svg>