<?xml version="1.0" encoding="UTF-8"?>
<svg width="43px" height="43px" viewBox="0 0 43 43" version="1.1" xmlns="http://www.w3.org/2000/svg" xmlns:xlink="http://www.w3.org/1999/xlink">
    <!-- Generator: Sketch 48.2 (47327) - http://www.bohemiancoding.com/sketch -->
    <title>resource/icon_info</title>
    <desc>Created with Sketch.</desc>
    <defs></defs>
    <g id="Artboard" stroke="none" stroke-width="1" fill="none" fill-rule="evenodd" transform="translate(-545.000000, -722.000000)">
        <g id="Group-49" transform="translate(545.000000, 722.000000)" fill="#000000" fill-rule="nonzero">
            <path d="M39.5,21.6349413 C39.5,11.6441301 31.439642,3.54771838 21.5,3.54771838 C11.560358,3.54771838 3.5,11.6441301 3.5,21.6349413 C3.5,31.6257525 11.560358,39.7221643 21.5,39.7221643 C31.439642,39.7221643 39.5,31.6257525 39.5,21.6349413 Z M42.5,21.6349413 C42.5,33.279617 33.0995009,42.7221643 21.5,42.7221643 C9.90049915,42.7221643 0.5,33.279617 0.5,21.6349413 C0.5,9.99026569 9.90049915,0.547718383 21.5,0.547718383 C33.0995009,0.547718383 42.5,9.99026569 42.5,21.6349413 Z M23,21.6349413 L23,13.2404172 C23,12.4119901 22.3284271,11.7404172 21.5,11.7404172 C20.6715729,11.7404172 20,12.4119901 20,13.2404172 L20,21.6349413 C20,22.4633685 20.6715729,23.1349413 21.5,23.1349413 C22.3284271,23.1349413 23,22.4633685 23,21.6349413 Z M23,30.5 C23,29.6705 22.3295,29 21.5,29 C20.6705,29 20,29.6705 20,30.5 C20,31.3295 20.6705,32 21.5,32 C22.3295,32 23,31.3295 23,30.5 Z" id="Combined-Shape"></path>
        </g>
    </g>
</svg>