<?xml version="1.0" encoding="UTF-8"?>
<svg width="56px" height="52px" viewBox="0 0 56 52" version="1.1" xmlns="http://www.w3.org/2000/svg" xmlns:xlink="http://www.w3.org/1999/xlink">
    <!-- Generator: Sketch 48.2 (47327) - http://www.bohemiancoding.com/sketch -->
    <title>resource/icon_4</title>
    <desc>Created with Sketch.</desc>
    <defs></defs>
    <g id="Artboard" stroke="none" stroke-width="1" fill="none" fill-rule="evenodd" transform="translate(-672.000000, -613.000000)">
        <g id="Group-19" transform="translate(672.000000, 613.000000)" fill="#393A37">
            <path d="M46.1915752,5.91165714 L51.2712212,5.91165714 C51.6820531,5.91165714 52.0145841,5.57885714 52.0145841,5.1688 C52.0145841,4.75824762 51.6820531,4.42594286 51.2712212,4.42594286 L46.1915752,4.42594286 C45.7812389,4.42594286 45.4482124,4.75824762 45.4482124,5.1688 C45.4482124,5.57885714 45.7812389,5.91165714 46.1915752,5.91165714" id="Fill-57"></path>
            <path d="M46.1915752,8.75927619 L51.8287434,8.75927619 C52.2395752,8.75927619 52.5721062,8.42647619 52.5721062,8.01641905 C52.5721062,7.60586667 52.2395752,7.2735619 51.8287434,7.2735619 L46.1915752,7.2735619 C45.7812389,7.2735619 45.4482124,7.60586667 45.4482124,8.01641905 C45.4482124,8.42647619 45.7812389,8.75927619 46.1915752,8.75927619" id="Fill-58"></path>
            <path d="M10.2792212,7.02297143 C10.2103363,7.36270476 10.1696991,7.71481905 10.1696991,8.07832381 C10.1696991,8.44182857 10.2103363,8.79394286 10.2792212,9.13318095 C9.9699823,8.88358095 9.76778761,8.50620952 9.76679646,8.07832381 C9.76778761,7.64994286 9.9699823,7.27257143 10.2792212,7.02297143 Z M13.8245664,5.1688 L18.7713982,5.1688 C18.2500531,6.01615238 17.9442832,7.01009524 17.9437876,8.07832381 C17.9442832,9.14605714 18.2500531,10.14 18.7713982,10.9878476 L13.8245664,10.9878476 C13.2809204,10.9868571 12.7655221,10.7169524 12.3472566,10.1979429 C11.9339469,9.68140952 11.6554336,8.92666667 11.6564248,8.07832381 C11.6554336,7.22948571 11.9339469,6.47474286 12.3472566,5.95820952 C12.7655221,5.4392 13.2809204,5.16929524 13.8245664,5.1688 Z M22.5159646,4.12137143 C22.0521062,5.03112381 21.7849912,6.05824762 21.7844956,7.14975238 L21.7844956,8.75927619 C21.7849912,9.9671619 22.1100885,11.0968 22.6705841,12.0744 C21.8821239,11.9084952 21.1793982,11.5167619 20.6283186,10.9670476 C19.8869381,10.2256762 19.4310088,9.20845714 19.4305133,8.07832381 C19.4310088,6.94769524 19.8869381,5.93097143 20.6283186,5.18910476 C21.1427257,4.6760381 21.7909381,4.30460952 22.5159646,4.12137143 Z M28.4747611,1.94975238 L48.9172389,1.94975238 C50.356885,1.95024762 51.6528142,2.53017143 52.596885,3.47260952 C53.5399646,4.4160381 54.1207788,5.71108571 54.1207788,7.14975238 L54.1207788,8.75927619 C54.1207788,10.1974476 53.5399646,11.4924952 52.596885,12.4359238 C51.6528142,13.3783619 50.356885,13.958781 48.9172389,13.9592762 L28.4747611,13.9592762 C27.0356106,13.958781 25.7396814,13.3783619 24.7956106,12.4359238 C23.852531,11.4924952 23.2717168,10.1974476 23.2712212,8.75927619 L23.2712212,7.14975238 C23.2717168,5.71108571 23.852531,4.4160381 24.7956106,3.47260952 C25.7396814,2.53017143 27.0356106,1.95024762 28.4747611,1.94975238 Z M46.2267611,24.712381 C46.8967788,27.2653333 47.4349735,30.3897905 47.4349735,34.1228952 C47.4349735,34.5076952 47.4186195,34.910819 47.4067257,35.3084952 C47.0751858,35.2347048 46.7317522,35.1926095 46.3774159,35.1926095 L38.0646372,35.1926095 C38.2336283,34.0010667 38.3089558,32.7763429 38.3089558,31.5436952 C38.307469,27.3960762 37.4882832,23.1682286 36.6725664,19.9640381 C36.1641062,17.9672381 35.6561416,16.3696 35.3439292,15.4449905 L44.2712212,15.4449905 C44.2573451,15.4682667 44.2414867,15.4885714 44.2281062,15.5128381 C44.0060885,15.9095238 43.8668319,16.4082286 43.8683186,16.9797333 C43.8683186,17.4967619 43.9768496,18.0712381 44.2137345,18.7145524 C44.7553982,20.1819429 45.5562478,22.1574476 46.2267611,24.712381 Z M48.6555752,49.1687238 C48.0703009,49.7526095 47.2694513,50.1111619 46.3774159,50.1116571 L33.3066195,50.1116571 C32.4150796,50.1111619 31.6142301,49.7526095 31.0289558,49.1687238 C30.4451681,48.5838476 30.0858761,47.7835429 30.0853805,46.8926095 L30.0853805,40.7021333 L49.5986549,40.7021333 L49.5986549,46.8926095 C49.5986549,47.7835429 49.2393628,48.5838476 48.6555752,49.1687238 Z M33.3066195,36.6783238 L46.3774159,36.6783238 C47.2694513,36.678819 48.0703009,37.0373714 48.6555752,37.6207619 C49.0857345,38.0521143 49.3924956,38.6008381 49.5253097,39.216419 L30.1592212,39.216419 C30.2920354,38.6008381 30.5987965,38.0521143 31.0289558,37.6207619 C31.6142301,37.0373714 32.4150796,36.678819 33.3066195,36.6783238 Z M34.3958938,22.0618667 C34.156531,22.0628571 33.9459115,22.039581 33.8155752,22.0073905 C33.836885,21.5200762 33.8497699,21.0481143 33.8497699,20.6033905 C33.8497699,18.1316571 33.5553982,16.3384 33.3680708,15.4449905 L33.7719646,15.4449905 C34.0499823,16.2353905 34.7323894,18.2723048 35.3815929,20.9287619 C35.4623717,21.2590857 35.5416637,21.6032762 35.6204602,21.9519238 C35.2591858,22.0078857 34.799292,22.0633524 34.3958938,22.0618667 Z M11.0374513,10.9209905 C11.0860177,10.9893333 11.1326018,11.0586667 11.1841416,11.1235429 C11.8199646,11.9263238 12.7600708,12.4740571 13.8245664,12.4735619 L19.8021947,12.4735619 C19.8874336,12.4735619 19.9677168,12.4562286 20.0435398,12.429981 C20.9970265,13.1911619 22.2037522,13.6492571 23.5190088,13.6497524 C23.6349735,13.6497524 23.7430088,13.6210286 23.8406372,13.573981 C25.0429027,14.7298667 26.6743363,15.4444952 28.4747611,15.4449905 L31.8446726,15.4449905 C31.9908673,16.0585905 32.3630442,17.8914667 32.3630442,20.6033905 C32.3630442,21.1288381 32.3491681,21.6869714 32.3169558,22.2758095 C32.3115044,22.3694095 32.3243894,22.4625143 32.3541239,22.5511619 C32.4349027,22.798781 32.5994336,23.0033143 32.7738761,23.1370286 C33.0395044,23.3400762 33.3140531,23.422781 33.5821593,23.4782476 C33.8517522,23.5307429 34.123823,23.5470857 34.3958938,23.547581 C34.9261593,23.5470857 35.4569204,23.4817143 35.8657699,23.4183238 C35.8895575,23.4143619 35.9083894,23.4108952 35.9311858,23.4074286 C36.436177,25.9390857 36.8227257,28.7847238 36.8222301,31.5436952 C36.8222301,32.76 36.7473982,33.9584762 36.5774159,35.1044571 C36.5729558,35.1341714 36.5739469,35.1633905 36.5734513,35.1926095 L33.3066195,35.1926095 C30.7063363,35.1931048 28.5991504,37.2988571 28.5986549,39.8973714 L28.5986549,46.8926095 C28.5991504,49.4911238 30.7063363,51.5968762 33.3066195,51.5973714 L46.3774159,51.5973714 C48.9781947,51.5968762 51.0853805,49.4911238 51.0853805,46.8926095 L51.0853805,39.8973714 C51.0853805,38.218019 50.2027611,36.7491429 48.8790796,35.9166476 C48.9058407,35.306019 48.9216991,34.7057905 48.9221947,34.1228952 C48.9221947,30.2466667 48.3612035,26.988 47.6649204,24.3355048 C46.9691327,21.6849905 46.1365664,19.6327238 45.6092743,18.2009905 C45.4199646,17.688419 45.3550442,17.286781 45.3550442,16.9797333 C45.3560354,16.6390095 45.4298761,16.4126857 45.5275044,16.2344 C45.6732035,15.9704381 45.903646,15.7966095 46.1167434,15.6866667 C46.2218053,15.6326857 46.3184425,15.5965333 46.3833628,15.5762286 L46.4532389,15.556419 L46.4646372,15.5534476 L46.4641416,15.5529524 C46.5607788,15.5331429 46.6489912,15.496 46.7263009,15.4449905 L48.9172389,15.4449905 C52.6127434,15.4444952 55.6075044,12.4517714 55.6075044,8.75927619 L55.6075044,7.14975238 C55.6075044,3.4567619 52.6127434,0.464533333 48.9172389,0.464038095 L28.4747611,0.464038095 C26.5796814,0.464038095 24.8719292,1.25493333 23.6547965,2.52026667 C23.6106903,2.51234286 23.5655929,2.50689524 23.5190088,2.50689524 C22.2037522,2.50689524 20.9970265,2.96499048 20.0435398,3.72617143 C19.9677168,3.69992381 19.8874336,3.68308571 19.8021947,3.68308571 L13.8245664,3.68308571 C12.7600708,3.68209524 11.8199646,4.22982857 11.1841416,5.03260952 C11.1326018,5.09748571 11.0860177,5.16681905 11.0374513,5.2351619 C9.76233628,5.27626667 8.70180531,6.15184762 8.38166372,7.33546667 L0.784495575,7.33546667 C0.374159292,7.33546667 0.0411327434,7.66777143 0.0411327434,8.07832381 C0.0411327434,8.48838095 0.374159292,8.82118095 0.784495575,8.82118095 L8.38166372,8.82118095 C8.70180531,10.0043048 9.76233628,10.8798857 11.0374513,10.9209905 Z" id="Fill-59"></path>
            <path d="M42.2666195,19.980381 C41.8993982,20.163619 41.7507257,20.6098286 41.9340885,20.9772952 L41.9375575,20.9847238 C42.0446018,21.2026286 44.2290973,25.7603048 44.5819469,33.1849143 C44.6017699,33.5949714 44.9496637,33.9109333 45.36,33.891619 C45.7698407,33.8723048 46.0865133,33.5241524 46.0671858,33.1140952 C45.6880708,25.1784 43.2959292,20.3785524 43.2637168,20.3126857 C43.080354,19.9457143 42.6338407,19.7971429 42.2666195,19.980381" id="Fill-60"></path>
        </g>
    </g>
</svg>