<?xml version="1.0" encoding="UTF-8"?>
<svg width="55px" height="56px" viewBox="0 0 55 56" version="1.1" xmlns="http://www.w3.org/2000/svg" xmlns:xlink="http://www.w3.org/1999/xlink">
    <!-- Generator: Sketch 48.2 (47327) - http://www.bohemiancoding.com/sketch -->
    <title>resource/icon_1</title>
    <desc>Created with Sketch.</desc>
    <defs></defs>
    <g id="Artboard" stroke="none" stroke-width="1" fill="none" fill-rule="evenodd" transform="translate(-373.000000, -611.000000)">
        <g id="Group-17" transform="translate(373.000000, 611.000000)" fill="#393A37">
            <path d="M24.6763303,51.9044324 C23.9880734,51.2172973 23.4375688,50.4948468 23.0717431,49.8510991 C22.888578,49.5297297 22.7518349,49.228036 22.6645413,48.9682162 C22.5767431,48.7083964 22.5409174,48.4894414 22.541422,48.3451532 C22.541422,48.2563604 22.5545413,48.1968288 22.5651376,48.1665586 L22.5843119,48.1292252 L22.622156,48.1095495 C22.6524312,48.098955 22.7119725,48.0863423 22.8012844,48.0863423 C22.9455963,48.0853333 23.1640826,48.1211532 23.423945,48.2089369 C24.2111009,48.4682523 25.3327982,49.1871712 26.3606422,50.2203964 C27.0483945,50.9075315 27.5988991,51.629982 27.9647248,52.2732252 C28.1478899,52.5945946 28.284633,52.8962883 28.3719266,53.1561081 C28.4597248,53.4164324 28.496055,53.6348829 28.4950459,53.7791712 C28.4950459,53.8684685 28.4824312,53.9274955 28.4718349,53.9577658 L28.452156,53.9956036 L28.4148165,54.0152793 C28.3840367,54.0258739 28.325,54.0384865 28.2356881,54.037982 C28.0913761,54.038991 27.8728899,54.0036757 27.6130275,53.9153874 C26.825367,53.6560721 25.7036697,52.9371532 24.6763303,51.9044324 Z M2.585,29.4575135 L2.77876147,29.4575135 C2.98766055,29.4575135 3.15720183,29.288 3.15720183,29.0791351 C3.15720183,28.8702703 2.98766055,28.7007568 2.77876147,28.7007568 L2.17577982,28.7007568 C2.11926606,28.5736216 2.06779817,28.4495135 2.02995413,28.3365045 C1.94215596,28.0766847 1.90582569,27.8577297 1.90683486,27.7139459 C1.90683486,27.6246486 1.91944954,27.5651171 1.93004587,27.5348468 L1.94972477,27.498018 L1.98706422,27.4778378 C2.01784404,27.4672432 2.07688073,27.4546306 2.16619266,27.4546306 C2.31050459,27.4541261 2.52899083,27.4894414 2.78885321,27.5777297 C3.37417431,27.7704505 4.14417431,28.2179459 4.92275229,28.8586667 C4.87683486,28.9212252 4.8440367,28.9948829 4.8440367,29.0791351 C4.8440367,29.288 5.01307339,29.4575135 5.22247706,29.4575135 L5.58830275,29.4575135 C5.6337156,29.5019099 5.68013761,29.5432793 5.72555046,29.5891892 C5.86834862,29.731964 6.05857798,29.8106667 6.26091743,29.8106667 C6.46275229,29.8106667 6.65298165,29.731964 6.79577982,29.5891892 L6.92747706,29.4575135 L7.66568807,29.4575135 C7.87458716,29.4575135 8.04412844,29.288 8.04412844,29.0791351 C8.04412844,28.8758198 7.88266055,28.7123604 7.68133028,28.7037838 L11.8759633,24.5098378 L12.7297248,24.5098378 C12.9386239,24.5098378 13.1081651,24.3403243 13.1081651,24.1314595 C13.1081651,23.9225946 12.9386239,23.7530811 12.7297248,23.7530811 L12.632844,23.7530811 L16.823945,19.5626667 L17.6252294,19.5626667 C17.8341284,19.5626667 18.0036697,19.3931532 18.0036697,19.1842883 C18.0036697,18.9749189 17.8341284,18.8059099 17.6252294,18.8059099 L17.5808257,18.8059099 L21.7719266,14.614991 L22.4425229,14.614991 C22.651422,14.614991 22.8209633,14.4454775 22.8209633,14.2366126 C22.8209633,14.0534775 22.6877523,13.9076757 22.5146789,13.8728649 L26.7209174,9.66681081 L27.2537615,9.66681081 C27.4626606,9.66681081 27.6322018,9.4972973 27.6322018,9.28843243 C27.6322018,9.14414414 27.5484404,9.02255856 27.4293578,8.95899099 L28.9875229,7.40108108 L30.5194495,8.93326126 C30.3675688,8.9821982 30.2555505,9.11992793 30.2555505,9.28843243 C30.2555505,9.4972973 30.4250917,9.66681081 30.6339908,9.66681081 L31.2531193,9.66681081 L35.4724771,13.884973 C35.3296789,13.938955 35.2267431,14.0746667 35.2267431,14.2366126 C35.2267431,14.4454775 35.3962844,14.614991 35.6051835,14.614991 L36.2026147,14.614991 L40.4608257,18.8725045 C40.3563761,18.9401081 40.283211,19.0516036 40.283211,19.1847928 C40.283211,19.3936577 40.4527523,19.5631712 40.6616514,19.5631712 L41.1516055,19.5631712 L45.082844,23.4942703 L44.8239908,23.7530811 L44.1044495,23.7530811 C43.8955505,23.7530811 43.7260092,23.9225946 43.7260092,24.1314595 C43.7260092,24.3292252 43.8794037,24.4866306 44.0731651,24.5032793 L39.875,28.7007568 L39.4319725,28.7007568 C39.2230734,28.7007568 39.0535321,28.8702703 39.0535321,29.0791351 C39.0535321,29.2007207 39.1145872,29.3036396 39.2033945,29.3727568 L34.4688532,34.1065225 L34.0026147,34.1065225 C33.7937156,34.1065225 33.6241743,34.276036 33.6241743,34.4849009 C33.6241743,34.612036 33.6912844,34.7194955 33.787156,34.7876036 L29.0606881,39.5132973 L28.4148165,39.5132973 C28.2054128,39.5132973 28.0363761,39.6828108 28.0363761,39.8916757 C28.0363761,40.0682523 28.1594954,40.2095135 28.3224771,40.2513874 L23.6530275,44.9205766 L23.1348165,44.9205766 C22.9259174,44.9205766 22.7563761,45.0900901 22.7563761,45.298955 C22.7563761,45.4397117 22.8366055,45.5572613 22.9506422,45.6223423 L21.5140826,47.0586667 L21.5140826,47.0591712 C21.3374771,47.2347387 21.2103211,47.4501622 21.134633,47.6711351 C21.0670183,47.8663784 21.0407798,48.0651532 21.0337156,48.2629189 L18.4033028,45.6329369 C18.526422,45.5703784 18.613211,45.4457658 18.613211,45.2984505 C18.613211,45.0895856 18.4436697,44.9200721 18.2347706,44.9200721 L17.6908257,44.9200721 L13.0254128,40.2559279 C13.1994954,40.2216216 13.3327064,40.0758198 13.3327064,39.8916757 C13.3327064,39.6828108 13.1631651,39.5132973 12.9542661,39.5132973 L12.2831651,39.5132973 L7.59908257,34.829982 C7.7312844,34.7714595 7.82412844,34.6397838 7.82412844,34.4854054 C7.82412844,34.2765405 7.65458716,34.107027 7.44568807,34.107027 L6.87550459,34.107027 L4.04123853,31.2727207 C3.43573394,30.6678198 2.94527523,30.0392072 2.585,29.4575135 Z M28.27,2.10075676 C28.9173853,2.31416216 29.7913303,2.84187387 30.6526606,3.5956036 L6.24426606,28 C5.63876147,27.4606847 5.0206422,27.0106667 4.42119266,26.6691171 C4.03720183,26.4511712 3.66178899,26.2776216 3.29495413,26.1525045 L27.3541743,2.09672072 C27.3677982,2.0836036 27.3723394,2.06544144 27.3844495,2.05131532 C27.3990826,2.0387027 27.4172477,2.03416216 27.4308716,2.02054054 L27.4687156,2.00086486 C27.4989908,1.99027027 27.5580275,1.97765766 27.6473394,1.97765766 C27.7916514,1.97715315 28.0101376,2.01246847 28.27,2.10075676 Z M51.0511009,25.5334775 C51.7393578,26.2211171 52.2893578,26.9430631 52.6556881,27.5873153 C52.8383486,27.9086847 52.9750917,28.2098739 53.0623853,28.4701982 C53.1501835,28.730018 53.1860092,28.948973 53.1855046,29.0927568 C53.1855046,29.1820541 53.1728899,29.2415856 53.161789,29.2718559 L53.1426147,29.3091892 C53.1421101,29.3096937 53.1421101,29.3096937 53.1421101,29.3101982 L29.7978899,52.6505946 C29.4138991,51.5406847 28.5848624,50.3096937 27.4308716,49.1503423 C26.6548165,48.3744144 25.8388991,47.7468108 25.0557798,47.3008288 C24.6722936,47.0823784 24.2963761,46.9093333 23.9295413,46.7842162 L47.2747706,23.4423063 L47.3126147,23.4231351 C47.3428899,23.412036 47.4019266,23.3999279 47.4917431,23.3999279 C47.6355505,23.3989189 47.8540367,23.4347387 48.1144037,23.5225225 C48.9015596,23.7818378 50.0232569,24.5007568 51.0511009,25.5334775 Z M52.1213303,24.4634234 C51.3447706,23.688 50.5293578,23.0603964 49.7462385,22.6144144 C49.3541743,22.3914234 48.9701835,22.2138378 48.5962844,22.0877117 C48.2213761,21.9625946 47.8565596,21.8869189 47.4917431,21.8864144 C47.2661927,21.8864144 47.039633,21.9161802 46.8176147,21.9928649 C46.5961009,22.0685405 46.3801376,22.1956757 46.2045413,22.3722523 L46.1530734,22.4237117 L30.0577523,6.33102703 L32.2769266,4.11171171 C32.418211,3.97095495 32.498945,3.77621622 32.498945,3.57693694 C32.498945,3.37715315 32.418211,3.18241441 32.2769266,3.04165766 C31.5008716,2.26572973 30.6849541,1.63812613 29.9018349,1.19214414 C29.5102752,0.969657658 29.1262844,0.791567568 28.7518807,0.665945946 C28.3774771,0.540828829 28.0126606,0.465153153 27.6473394,0.464144144 C27.4222936,0.464648649 27.1952294,0.494414414 26.973211,0.571099099 C26.7522018,0.646774775 26.5362385,0.77390991 26.3601376,0.950486486 C26.3465138,0.964108108 26.3419725,0.98227027 26.3298624,0.996396396 C26.3152294,1.00900901 26.2975688,1.01304505 26.283945,1.02666667 L0.879495413,26.4274595 C0.702889908,26.603027 0.575733945,26.818955 0.499541284,27.0399279 C0.422844037,27.2619099 0.393073394,27.4889369 0.393073394,27.7139459 C0.394082569,28.0787027 0.469770642,28.443964 0.594908257,28.8183063 C0.974357798,29.9342703 1.80793578,31.1748468 2.97100917,32.3432793 L23.6061009,52.974991 C24.382156,53.7504144 25.1980734,54.378018 25.9811927,54.824 C26.3727523,55.046991 26.7567431,55.2245766 27.1311468,55.3501982 C27.5055505,55.4753153 27.870367,55.550991 28.2356881,55.5514955 C28.4607339,55.5514955 28.6877982,55.5217297 28.9093119,55.4455495 C29.1308257,55.3693694 29.346789,55.2422342 29.5223853,55.0656577 L54.2123394,30.3797477 C54.212844,30.3797477 54.212844,30.3797477 54.2133486,30.3792432 C54.3899541,30.2036757 54.5166055,29.9877477 54.5927982,29.7667748 C54.6689908,29.5447928 54.6987615,29.3177658 54.6992661,29.0927568 C54.6982569,28.728 54.6225688,28.3632432 54.4974312,27.9883964 C54.1174771,26.8724324 53.2844037,25.6318559 52.1213303,24.4634234 Z" id="Fill-21"></path>
            <path d="M32.1013303,28.7007568 L29.6576147,28.7007568 C29.4487156,28.7007568 29.2791743,28.8702703 29.2791743,29.0791351 C29.2791743,29.288 29.4487156,29.4575135 29.6576147,29.4575135 L32.1013303,29.4575135 C32.3107339,29.4575135 32.4797706,29.288 32.4797706,29.0791351 C32.4797706,28.8702703 32.3107339,28.7007568 32.1013303,28.7007568" id="Fill-22"></path>
            <path d="M10.1094037,29.4575135 L12.5526147,29.4575135 C12.7620183,29.4575135 12.931055,29.288 12.931055,29.0791351 C12.931055,28.8702703 12.7620183,28.7007568 12.5526147,28.7007568 L10.1094037,28.7007568 C9.90050459,28.7007568 9.7309633,28.8702703 9.7309633,29.0791351 C9.7309633,29.288 9.90050459,29.4575135 10.1094037,29.4575135" id="Fill-23"></path>
            <path d="M19.8837615,29.4575135 L22.3274771,29.4575135 C22.5363761,29.4575135 22.7059174,29.288 22.7059174,29.0791351 C22.7059174,28.8702703 22.5363761,28.7007568 22.3274771,28.7007568 L19.8837615,28.7007568 C19.6748624,28.7007568 19.5053211,28.8702703 19.5053211,29.0791351 C19.5053211,29.288 19.6748624,29.4575135 19.8837615,29.4575135" id="Fill-24"></path>
            <path d="M14.9963303,29.4575135 L17.4400459,29.4575135 C17.648945,29.4575135 17.8184862,29.288 17.8184862,29.0791351 C17.8184862,28.8702703 17.648945,28.7007568 17.4400459,28.7007568 L14.9963303,28.7007568 C14.7874312,28.7007568 14.6178899,28.8702703 14.6178899,29.0791351 C14.6178899,29.288 14.7874312,29.4575135 14.9963303,29.4575135" id="Fill-25"></path>
            <path d="M24.7706881,29.4575135 L27.2144037,29.4575135 C27.4233028,29.4575135 27.592844,29.288 27.592844,29.0791351 C27.592844,28.8702703 27.4233028,28.7007568 27.2144037,28.7007568 L24.7706881,28.7007568 C24.561789,28.7007568 24.3922477,28.8702703 24.3922477,29.0791351 C24.3922477,29.288 24.561789,29.4575135 24.7706881,29.4575135" id="Fill-26"></path>
            <path d="M36.9887615,28.7007568 L34.5450459,28.7007568 C34.3361468,28.7007568 34.1666055,28.8702703 34.1666055,29.0791351 C34.1666055,29.288 34.3361468,29.4575135 34.5450459,29.4575135 L36.9887615,29.4575135 C37.1976606,29.4575135 37.3672018,29.288 37.3672018,29.0791351 C37.3672018,28.8702703 37.1976606,28.7007568 36.9887615,28.7007568" id="Fill-27"></path>
            <path d="M24.3458257,34.8637838 L26.7597706,34.8632793 C26.9686697,34.8632793 27.138211,34.6942703 27.138211,34.4849009 C27.138211,34.276036 26.9686697,34.1065225 26.7597706,34.1065225 L24.3453211,34.107027 C24.136422,34.107027 23.9668807,34.276036 23.9668807,34.4854054 C23.9673853,34.6942703 24.136422,34.8637838 24.3458257,34.8637838" id="Fill-28"></path>
            <path d="M29.1737156,34.8632793 L31.5881651,34.8632793 C31.7970642,34.8632793 31.9666055,34.6937658 31.9666055,34.4849009 C31.9666055,34.276036 31.7970642,34.1065225 31.5881651,34.1065225 L29.1737156,34.1065225 C28.9648165,34.1065225 28.7952752,34.276036 28.7952752,34.4849009 C28.7952752,34.6942703 28.9648165,34.8632793 29.1737156,34.8632793" id="Fill-29"></path>
            <path d="M14.6885321,34.8637838 L17.1029817,34.8637838 C17.3118807,34.8637838 17.481422,34.6942703 17.481422,34.4854054 C17.481422,34.2765405 17.3118807,34.107027 17.1029817,34.107027 L14.6885321,34.107027 C14.479633,34.107027 14.3100917,34.2765405 14.3100917,34.4854054 C14.3100917,34.6942703 14.479633,34.8637838 14.6885321,34.8637838" id="Fill-30"></path>
            <path d="M19.5169266,34.8637838 L21.9313761,34.8637838 C22.1402752,34.8637838 22.3098165,34.6942703 22.3098165,34.4854054 C22.3098165,34.276036 22.1402752,34.107027 21.9313761,34.107027 L19.5169266,34.107027 C19.3080275,34.107027 19.1384862,34.2765405 19.1384862,34.4854054 C19.1384862,34.6942703 19.3080275,34.8637838 19.5169266,34.8637838" id="Fill-31"></path>
            <path d="M9.86013761,34.8637838 L12.2740826,34.8637838 C12.4834862,34.8637838 12.6525229,34.6942703 12.6525229,34.4854054 C12.6525229,34.2765405 12.4834862,34.107027 12.2740826,34.107027 L9.86013761,34.107027 C9.65073394,34.107027 9.48169725,34.2765405 9.48169725,34.4854054 C9.48169725,34.6942703 9.65073394,34.8637838 9.86013761,34.8637838" id="Fill-32"></path>
            <path d="M17.371422,39.5132973 L15.162844,39.5132973 C14.953945,39.5132973 14.7844037,39.6828108 14.7844037,39.8916757 C14.7844037,40.101045 14.953945,40.2700541 15.162844,40.2700541 L17.371422,40.2700541 C17.5808257,40.2700541 17.7498624,40.101045 17.7498624,39.8916757 C17.7498624,39.6828108 17.5808257,39.5132973 17.371422,39.5132973" id="Fill-33"></path>
            <path d="M21.7890826,39.5132973 L19.5805046,39.5132973 C19.3711009,39.5132973 19.2020642,39.6828108 19.2020642,39.8916757 C19.2020642,40.101045 19.3711009,40.2700541 19.5805046,40.2700541 L21.7890826,40.2700541 C21.9979817,40.2700541 22.1675229,40.101045 22.1675229,39.8916757 C22.1675229,39.6828108 21.9979817,39.5132973 21.7890826,39.5132973" id="Fill-34"></path>
            <path d="M23.9976606,40.2700541 L26.2062385,40.2700541 C26.4151376,40.2700541 26.5846789,40.101045 26.5846789,39.8916757 C26.5846789,39.6828108 26.4151376,39.5132973 26.2062385,39.5132973 L23.9976606,39.5132973 C23.7882569,39.5132973 23.6192202,39.6828108 23.6192202,39.8916757 C23.6192202,40.101045 23.7882569,40.2700541 23.9976606,40.2700541" id="Fill-35"></path>
            <path d="M21.5014679,44.9205766 L19.8681193,44.9200721 C19.6592202,44.9200721 19.4896789,45.0895856 19.4896789,45.2984505 C19.4896789,45.5073153 19.6592202,45.6768288 19.8681193,45.6768288 L21.5014679,45.6773333 C21.710367,45.6773333 21.8799083,45.5078198 21.8799083,45.298955 C21.8799083,45.0900901 21.710367,44.9205766 21.5014679,44.9205766" id="Fill-36"></path>
            <path d="M24.7969266,24.5098378 L27.210367,24.5098378 C27.4192661,24.5098378 27.5888073,24.3403243 27.5888073,24.1314595 C27.5888073,23.9225946 27.4192661,23.7530811 27.210367,23.7530811 L24.7969266,23.7530811 C24.5880275,23.7530811 24.4184862,23.9225946 24.4184862,24.1314595 C24.4184862,24.3403243 24.5880275,24.5098378 24.7969266,24.5098378" id="Fill-37"></path>
            <path d="M39.2770642,24.5098378 L41.6910092,24.5098378 C41.8999083,24.5098378 42.0694495,24.3403243 42.0694495,24.1314595 C42.0694495,23.9225946 41.8999083,23.7530811 41.6910092,23.7530811 L39.2770642,23.7530811 C39.0681651,23.7530811 38.8986239,23.9225946 38.8986239,24.1314595 C38.8986239,24.3403243 39.0681651,24.5098378 39.2770642,24.5098378" id="Fill-38"></path>
            <path d="M29.6233028,24.5098378 L32.0372477,24.5098378 C32.2461468,24.5098378 32.4156881,24.3403243 32.4156881,24.1314595 C32.4156881,23.9225946 32.2461468,23.7530811 32.0372477,23.7530811 L29.6233028,23.7530811 C29.4144037,23.7530811 29.2448624,23.9225946 29.2448624,24.1314595 C29.2448624,24.3403243 29.4144037,24.5098378 29.6233028,24.5098378" id="Fill-39"></path>
            <path d="M34.4501835,24.5098378 L36.8641284,24.5098378 C37.0730275,24.5098378 37.2425688,24.3403243 37.2425688,24.1314595 C37.2425688,23.9225946 37.0730275,23.7530811 36.8641284,23.7530811 L34.4501835,23.7530811 C34.2412844,23.7530811 34.0717431,23.9225946 34.0717431,24.1314595 C34.0717431,24.3403243 34.2412844,24.5098378 34.4501835,24.5098378" id="Fill-40"></path>
            <path d="M19.9700459,24.5098378 L22.3834862,24.5098378 C22.5923853,24.5098378 22.7619266,24.3403243 22.7619266,24.1314595 C22.7619266,23.9225946 22.5923853,23.7530811 22.3834862,23.7530811 L19.9700459,23.7530811 C19.7611468,23.7530811 19.5916055,23.9225946 19.5916055,24.1314595 C19.5916055,24.3403243 19.7611468,24.5098378 19.9700459,24.5098378" id="Fill-41"></path>
            <path d="M15.1431651,24.5098378 L17.5566055,24.5098378 C17.7655046,24.5098378 17.9350459,24.3403243 17.9350459,24.1314595 C17.9350459,23.9225946 17.7655046,23.7530811 17.5566055,23.7530811 L15.1431651,23.7530811 C14.9342661,23.7530811 14.7647248,23.9225946 14.7647248,24.1314595 C14.7647248,24.3403243 14.9342661,24.5098378 15.1431651,24.5098378" id="Fill-42"></path>
            <path d="M35.5426147,19.5631712 L38.1023853,19.5631712 C38.3112844,19.5631712 38.4808257,19.3936577 38.4808257,19.1847928 C38.4808257,18.9759279 38.3112844,18.8064144 38.1023853,18.8064144 L35.5426147,18.8064144 C35.3337156,18.8064144 35.1641743,18.9754234 35.1641743,19.1847928 C35.1641743,19.3936577 35.3337156,19.5631712 35.5426147,19.5631712" id="Fill-43"></path>
            <path d="M25.3040367,18.8059099 C25.0951376,18.8059099 24.9255963,18.9754234 24.9255963,19.1842883 C24.9255963,19.3931532 25.0951376,19.5626667 25.3040367,19.5626667 L27.8638073,19.5626667 C28.0727064,19.5626667 28.2422477,19.3936577 28.2422477,19.1842883 C28.2422477,18.9754234 28.0727064,18.8059099 27.8638073,18.8059099 L25.3040367,18.8059099" id="Fill-44"></path>
            <path d="M20.1844954,19.5626667 L22.7442661,19.5626667 C22.9531651,19.5626667 23.1227064,19.3931532 23.1227064,19.1842883 C23.1227064,18.9749189 22.9531651,18.8059099 22.7442661,18.8059099 L20.1844954,18.8059099 C19.9755963,18.8059099 19.806055,18.9749189 19.806055,19.1842883 C19.806055,19.3931532 19.9755963,19.5626667 20.1844954,19.5626667" id="Fill-45"></path>
            <path d="M32.982844,18.8064144 L30.4230734,18.8064144 C30.2141743,18.8064144 30.044633,18.9754234 30.044633,19.1847928 C30.044633,19.3936577 30.2141743,19.5631712 30.4230734,19.5631712 L32.982844,19.5631712 C33.1917431,19.5631712 33.3612844,19.3936577 33.3612844,19.1847928 C33.3612844,18.9754234 33.1917431,18.8064144 32.982844,18.8064144" id="Fill-46"></path>
            <path d="M30.3398165,14.614991 L32.9727523,14.614991 C33.1816514,14.614991 33.3511927,14.4454775 33.3511927,14.2366126 C33.3511927,14.0277477 33.1816514,13.8582342 32.9727523,13.8582342 L30.3398165,13.8582342 C30.1309174,13.8582342 29.9613761,14.0277477 29.9613761,14.2366126 C29.9613761,14.4454775 30.1309174,14.614991 30.3398165,14.614991" id="Fill-47"></path>
            <path d="M25.0749541,14.614991 L27.7073853,14.614991 C27.9162844,14.614991 28.0858257,14.4454775 28.0858257,14.2366126 C28.0858257,14.0277477 27.9162844,13.8582342 27.7073853,13.8582342 L25.0749541,13.8582342 C24.866055,13.8582342 24.6965138,14.0277477 24.6965138,14.2366126 C24.6965138,14.4454775 24.866055,14.614991 25.0749541,14.614991" id="Fill-48"></path>
            <path d="M27.3183486,51.8691171 C27.0004587,51.459964 26.5897248,50.9968288 26.1179358,50.5251171 C25.5790367,49.9863063 25.0512385,49.5272072 24.602156,49.1947387 C24.3771101,49.0282523 24.1717431,48.8940541 23.9865596,48.7946667 C23.893211,48.7452252 23.8049083,48.7043604 23.7161009,48.6730811 C23.626789,48.6428108 23.5379817,48.6190991 23.4279817,48.6180901 C23.3255505,48.6165766 23.1766972,48.6468468 23.0611468,48.7623784 C22.9133028,48.9101982 22.9133028,49.1503423 23.0611468,49.2976577 C23.1676147,49.4041081 23.3210092,49.4308468 23.4542202,49.3839279 C23.4966055,49.3985586 23.5753211,49.4298378 23.6701835,49.4843243 C24.098578,49.7214414 24.8362844,50.3117117 25.5830734,51.0603964 C26.0987615,51.576 26.5377523,52.082018 26.84,52.4911712 C26.9913761,52.694991 27.1079358,52.8756036 27.1811009,53.0128288 C27.2174312,53.0809369 27.2426606,53.1384505 27.2562844,53.1772973 L27.2593119,53.1883964 C27.2123853,53.3220901 27.239633,53.475964 27.3466055,53.5829189 C27.4949541,53.7302342 27.7341284,53.7297297 27.8819725,53.5814054 C27.9965138,53.4658739 28.026789,53.3175495 28.0257798,53.2151351 C28.0247706,53.1051532 28.001055,53.0163604 27.9702752,52.9270631 C27.8607798,52.6233514 27.6367431,52.2823063 27.3183486,51.8691171" id="Fill-49"></path>
        </g>
    </g>
</svg>