<?xml version="1.0" encoding="UTF-8"?>
<svg width="47px" height="62px" viewBox="0 0 47 62" version="1.1" xmlns="http://www.w3.org/2000/svg" xmlns:xlink="http://www.w3.org/1999/xlink">
    <!-- Generator: Sketch 48.2 (47327) - http://www.bohemiancoding.com/sketch -->
    <title>resource/icon_3</title>
    <desc>Created with Sketch.</desc>
    <defs></defs>
    <g id="Artboard" stroke="none" stroke-width="1" fill="none" fill-rule="evenodd" transform="translate(-594.000000, -608.000000)">
        <g id="Group-15" transform="translate(594.000000, 608.000000)" fill="#393A37">
            <path d="M14.3220345,59.952931 L6.21102299,59.952931 L2.15551724,53.0035862 L6.21102299,46.0537069 L14.3220345,46.0537069 L18.3780805,53.0035862 L14.3220345,59.952931 Z M14.7898736,44.4502586 L5.74318391,44.4502586 C5.45362069,44.4502586 5.1862069,44.6031207 5.04142529,44.8511207 L0.51754023,52.6027241 C0.373298851,52.8507241 0.373298851,53.1564483 0.51808046,53.4044483 L5.04142529,61.1555172 C5.1862069,61.4035172 5.45362069,61.5563793 5.74318391,61.5563793 L14.7898736,61.5563793 C15.079977,61.5563793 15.3473908,61.4035172 15.4916322,61.1555172 L20.0155172,53.4044483 C20.1602989,53.1564483 20.1602989,52.8507241 20.0155172,52.6027241 L15.4916322,44.8511207 C15.3473908,44.6031207 15.079977,44.4502586 14.7898736,44.4502586 Z" id="Fill-87"></path>
            <path d="M12.8504483,55.5594828 C12.1865057,56.2147586 11.2778391,56.6177586 10.2665287,56.6182931 C9.25521839,56.6177586 8.34709195,56.2147586 7.68314943,55.5594828 C7.02082759,54.9031379 6.61349425,54.0041379 6.61295402,53.0035862 C6.61349425,52.0025 7.02082759,51.1035 7.68314943,50.4471552 C8.34709195,49.7918793 9.25521839,49.3888793 10.2665287,49.3883448 C11.2778391,49.3888793 12.1865057,49.7918793 12.849908,50.4471552 C13.5122299,51.1035 13.9195632,52.0025 13.9201034,53.0035862 C13.9195632,54.0041379 13.5127701,54.9031379 12.8504483,55.5594828 Z M10.2665287,47.7848966 C7.3536092,47.785431 4.9928046,50.1211207 4.99226437,53.0035862 C4.9928046,55.8860517 7.3536092,58.2212069 10.2665287,58.2217414 C13.1799885,58.2212069 15.5402529,55.8860517 15.5407931,53.0035862 C15.5402529,50.1211207 13.1799885,47.785431 10.2665287,47.7848966 Z" id="Fill-88"></path>
            <path d="M32.3505862,57.0603103 L42.2195057,47.2958448 C42.6576322,46.8586379 43.1994828,46.6544655 43.5868276,46.6587414 C43.8574828,46.6619483 44.031977,46.7373103 44.1578506,46.8602414 L44.6867356,47.3829655 C44.8104483,47.5075 44.8871609,47.6801379 44.8898621,47.9479138 C44.8947241,48.3311379 44.6883563,48.8672241 44.245908,49.3001552 L34.3769885,59.0646207 C33.9388621,59.5018276 33.3975517,59.706 33.0096667,59.7017241 C32.7395517,59.6990517 32.5645172,59.6231552 32.4386437,59.5007586 L31.9097586,58.9780345 C31.786046,58.8529655 31.7093333,58.6803276 31.7066322,58.4130862 C31.7023103,58.0293276 31.9086782,57.4932414 32.3505862,57.0603103 Z M25.3151724,45.3038276 L30.3371494,40.3347414 L38.6507471,48.5598966 L33.6282299,53.5289828 L25.3151724,45.3038276 Z M22.3973908,42.4176207 L27.419908,37.449069 L29.1913218,39.2016379 L24.1693448,44.1701897 L22.3973908,42.4176207 Z M19.4801494,39.5314138 L24.5021264,34.5623276 L26.2740805,36.3148966 L21.2515632,41.2839828 L19.4801494,39.5314138 Z M16.5623678,36.6446724 L21.5848851,31.6761207 L23.3562989,33.4286897 L18.3343218,38.3977759 L16.5623678,36.6446724 Z M13.6451264,33.7584655 L18.6671034,28.7893793 L20.4385172,30.5424828 L15.4165402,35.5110345 L13.6451264,33.7584655 Z M10.7278851,30.8722586 L13.3123448,28.3147586 C13.6289195,28.0015517 13.6289195,27.4943276 13.3123448,27.1811207 C12.9957701,26.8679138 12.4825517,26.8679138 12.1665172,27.1811207 L9.58205747,29.7386207 L7.77282759,27.9486379 C7.03217241,27.2153276 6.66535632,26.2666207 6.66481609,25.3302069 C6.66589655,24.4296034 7.00137931,23.5546552 7.6772069,22.8854828 C8.35411494,22.2168448 9.23847126,21.8843966 10.1487586,21.8833276 C11.0952414,21.8838621 12.0541494,22.2462414 12.7948046,22.9795517 L17.5212759,27.6557414 L12.4992989,32.6248276 L10.7278851,30.8722586 Z M30.0859425,58.4130862 C30.0832414,59.0191897 30.2933908,59.6482759 30.763931,60.1116724 L31.2928161,60.6343966 C31.7617356,61.1004655 32.397046,61.3078448 33.0096667,61.3051724 C33.908069,61.301431 34.8064713,60.9027069 35.5228161,60.1982586 L45.3917356,50.4343276 C46.1037586,49.7256034 46.5062299,48.8362241 46.5105517,47.9479138 C46.5137931,47.3412759 46.3031034,46.7132586 45.8325632,46.2493276 L45.3036782,45.7266034 C44.8352989,45.261069 44.1999885,45.0526207 43.5868276,45.0552931 C42.6889655,45.0601034 41.790023,45.4577586 41.0736782,46.1622069 L39.7965747,47.4262586 L31.482977,39.2011034 L32.0702069,38.6201207 C32.3867816,38.3069138 32.3867816,37.7996897 32.0702069,37.4864828 C31.7536322,37.1732759 31.240954,37.1732759 30.9243793,37.4864828 L30.3371494,38.0674655 L28.5657356,36.3148966 L29.1529655,35.7344483 C29.4695402,35.4212414 29.4695402,34.9134828 29.1529655,34.6002759 C28.8363908,34.2876034 28.3237126,34.2876034 28.0071379,34.6002759 L27.419908,35.1812586 L25.6484943,33.4286897 L26.2351839,32.8477069 C26.5517586,32.5345 26.5517586,32.0272759 26.2351839,31.714069 C25.9191494,31.4008621 25.405931,31.4008621 25.0893563,31.714069 L24.5021264,32.2950517 L22.7307126,30.5419483 L23.3179425,29.9609655 C23.6345172,29.6477586 23.6345172,29.1405345 23.3179425,28.8273276 C23.001908,28.5141207 22.4881494,28.5141207 22.1721149,28.8273276 L21.5848851,29.4083103 L19.812931,27.6552069 L20.4007011,27.0742241 C20.7172759,26.7610172 20.7172759,26.2537931 20.4007011,25.9405862 C20.0841264,25.6273793 19.570908,25.6273793 19.2548736,25.9405862 L18.6671034,26.521569 L13.9411724,21.8459138 C12.8915057,20.8068793 11.5139195,20.2793448 10.1487586,20.2798793 C8.83762069,20.2788103 7.52378161,20.768931 6.53137931,21.7513103 C5.53789655,22.7331552 5.04250575,24.0330172 5.04412644,25.3302069 C5.04358621,26.6803103 5.5767931,28.0437759 6.627,29.0822759 L8.43622989,30.8722586 L7.93705747,31.3661207 C7.62048276,31.6793276 7.62048276,32.1865517 7.93705747,32.4997586 C8.25363218,32.8129655 8.76685057,32.8129655 9.08288506,32.4997586 L9.58205747,32.0058966 L11.3534713,33.7584655 L10.8542989,34.2523276 C10.5377241,34.5655345 10.5377241,35.0727586 10.8542989,35.3859655 C11.1708736,35.6991724 11.6835517,35.6991724 12.0001264,35.3859655 L12.4992989,34.8921034 L14.2707126,36.6446724 L13.7715402,37.1385345 C13.4549655,37.4512069 13.4549655,37.9589655 13.7715402,38.2721724 C14.0881149,38.5853793 14.6013333,38.5853793 14.9173678,38.2721724 L15.4165402,37.7783103 L17.1884943,39.5314138 L16.6893218,40.0252759 C16.3727471,40.3384828 16.3727471,40.8457069 16.6893218,41.1589138 C17.0053563,41.4721207 17.5185747,41.4721207 17.8351494,41.1589138 L18.3343218,40.6650517 L20.1057356,42.4176207 L19.6065632,42.9114828 C19.2905287,43.2246897 19.2905287,43.7319138 19.6065632,44.0451207 C19.9231379,44.3583276 20.4363563,44.3583276 20.752931,44.0451207 L21.2515632,43.5517931 L23.0235172,45.3043621 L22.5238046,45.7982241 C22.2072299,46.111431 22.2072299,46.6186552 22.5238046,46.9318621 C22.8403793,47.245069 23.3535977,47.245069 23.6696322,46.9318621 L24.1693448,46.438 L32.4824023,54.6626207 L31.2047586,55.9266724 C30.4927356,56.6348621 30.0902644,57.5242414 30.0859425,58.4130862 Z" id="Fill-89"></path>
            <path d="M16.1950115,8.57524138 C16.511046,8.26203448 16.511046,7.75481034 16.1944713,7.44160345 L15.3138966,6.56986207 L18.6001149,3.31860345 L18.2300575,7.64417241 C18.210069,7.87827586 18.2965057,8.11291379 18.4645172,8.27860345 L26.5231264,16.2514828 L22.2293793,21.9415862 L13.4690115,13.2744138 C13.3015402,13.1087241 13.0681609,13.0232069 12.831,13.0424483 L8.4184023,13.392 L12.053069,9.79653448 L12.9336437,10.6682759 C13.087069,10.8195345 13.2901954,10.9034483 13.5068276,10.9034483 C13.7234598,10.9034483 13.9265862,10.8195345 14.0800115,10.6682759 L16.1950115,8.57524138 Z M29.6364713,19.3317069 L25.3427241,25.0218103 L23.3876322,23.0869828 L27.6813793,17.3974138 L29.6364713,19.3317069 Z M32.7498161,22.411931 L28.456069,28.1015 L26.500977,26.1677414 L30.7947241,20.4781724 L32.7498161,22.411931 Z M35.8631609,25.4921552 L31.5694138,31.1822586 L29.6137816,29.2479655 L33.908069,23.5578621 L35.8631609,25.4921552 Z M38.9765057,28.5723793 L35.7259425,32.8808448 C35.4579885,33.2357414 35.532,33.7376207 35.8907126,34.0027241 C36.2494253,34.2672931 36.7572414,34.1951379 37.0246552,33.8402414 L40.1147701,29.7450345 C40.3546322,30.0299138 40.6279885,30.3864138 40.9137701,30.8011724 C41.5906782,31.7803448 42.3307931,33.0427931 42.8888506,34.2683621 C43.1681494,34.8814138 43.4026092,35.4848448 43.5625172,36.0316207 C43.724046,36.5783966 43.8077816,37.0701207 43.8067011,37.4362414 C43.8072414,37.6414828 43.7813103,37.8050345 43.7445747,37.9178103 C43.7067586,38.0311207 43.6651609,38.0925862 43.6214023,38.1369483 C43.5765632,38.1802414 43.5144368,38.221931 43.3993678,38.2588103 C43.2853793,38.2956897 43.120069,38.3208103 42.9131609,38.3202759 C42.4183103,38.3229483 41.7025057,38.1706207 40.922954,37.8969655 C39.7501149,37.4891552 38.4238506,36.8247931 37.2796437,36.1395862 C36.7075402,35.7975172 36.1797356,35.4501034 35.7378276,35.1304828 C35.2959195,34.8113966 34.9382874,34.5158276 34.7216552,34.3009655 L32.7276667,32.3281897 L37.0214138,26.6380862 L38.9765057,28.5723793 Z M12.6262529,8.09634483 C12.3096782,7.78313793 11.7964598,7.78313793 11.4798851,8.09634483 L5.71563218,13.7987414 C5.47522989,14.0365862 5.4104023,14.3962931 5.55302299,14.7014828 C5.69564368,15.0066724 6.01437931,15.1916034 6.35310345,15.1643448 L12.5878966,14.6699483 L21.2494023,23.2398448 L20.6708161,24.0068276 C20.4034023,24.3617241 20.4768736,24.8641379 20.8355862,25.1292414 C21.1942989,25.3938103 21.7021149,25.3211207 21.9695287,24.9662241 L22.4081954,24.3857759 L24.3627471,26.3195345 L23.7841609,27.0870517 C23.5162069,27.4419483 23.5902184,27.9438276 23.948931,28.208931 C24.3076437,28.4740345 24.8149195,28.4013448 25.0828736,28.0464483 L25.521,27.466 L27.476092,29.4002931 L26.8975057,30.1672759 C26.6295517,30.5221724 26.7035632,31.0240517 27.0622759,31.2891552 C27.4209885,31.5537241 27.9288046,31.481569 28.1962184,31.1261379 L28.6343448,30.5462241 L30.589977,32.4805172 L30.0108506,33.2475 C29.7428966,33.6023966 29.816908,34.1048103 30.1750805,34.3699138 C30.5343333,34.6344828 31.0416092,34.5617931 31.3095632,34.2068966 L31.7476897,33.6259138 L33.5758276,35.4346034 C33.9896437,35.8424138 34.577954,36.2977931 35.2921379,36.7820345 C36.3612529,37.5046552 37.6999425,38.2737759 39.0451149,38.8745345 C39.7182414,39.1743793 40.391908,39.4325345 41.0418046,39.619069 C41.6922414,39.805069 42.3167471,39.9226552 42.9131609,39.9237241 C43.247023,39.9231897 43.5749425,39.8863103 43.8920575,39.7863621 C44.208092,39.6874828 44.516023,39.5196552 44.7672299,39.2705862 C45.018977,39.0225862 45.188069,38.7173966 45.2885517,38.4052586 C45.3895747,38.0909828 45.4273908,37.7665517 45.4273908,37.4362414 C45.4246897,36.6505517 45.2172414,35.8114138 44.9076897,34.9348621 C44.4403908,33.6243103 43.7267471,32.241069 42.9898736,31.0336724 C42.6208966,30.4302414 42.2465172,29.8722414 41.8905057,29.3906724 C41.616069,29.0197414 41.3556782,28.6974483 41.1087931,28.428069 L41.5301724,27.869 C41.7981264,27.5141034 41.7241149,27.0116897 41.3659425,26.7465862 C41.0072299,26.4820172 40.4994138,26.5547069 40.2314598,26.9096034 L39.9559425,27.2741207 L38.0008506,25.3398276 L38.4168276,24.7882414 C38.6847816,24.4333448 38.6107701,23.9314655 38.2525977,23.6658276 C37.8938851,23.4012586 37.386069,23.4739483 37.1181149,23.8288448 L36.8425977,24.1938966 L34.8875057,22.2596034 L35.3034828,21.7080172 C35.5714368,21.3531207 35.4974253,20.8512414 35.1387126,20.5861379 C34.78,20.321569 34.2721839,20.3937241 34.0047701,20.7486207 L33.7292529,21.1136724 L31.7741609,19.1793793 L32.1901379,18.6283276 C32.458092,18.273431 32.3840805,17.7710172 32.025908,17.5059138 C31.6671954,17.2413448 31.1593793,17.3140345 30.8914253,17.668931 L30.615908,18.0334483 L28.6608161,16.0991552 L29.0767931,15.547569 C29.3447471,15.1926724 29.2707356,14.6907931 28.9125632,14.4251552 C28.5533103,14.1605862 28.0460345,14.2332759 27.7780805,14.5881724 L27.5025632,14.9532241 L19.8761379,7.40846552 L20.4017816,1.26886207 C20.4304138,0.933206897 20.2445747,0.615724138 19.9355632,0.474086207 C19.6276322,0.331913793 19.2618966,0.396051724 19.0214943,0.634431034 L13.5948851,6.00331034 C13.2783103,6.31651724 13.2783103,6.82374138 13.5948851,7.13694828 L14.4754598,8.00868966 L13.5068276,8.96701724 L12.6262529,8.09634483 Z" id="Fill-90"></path>
        </g>
    </g>
</svg>