<?xml version="1.0" encoding="UTF-8"?>
<svg width="168px" height="26px" viewBox="0 0 168 26" version="1.1" xmlns="http://www.w3.org/2000/svg" xmlns:xlink="http://www.w3.org/1999/xlink">
    <!-- Generator: Sketch 48.2 (47327) - http://www.bohemiancoding.com/sketch -->
    <title>resource/logo</title>
    <desc>Created with Sketch.</desc>
    <defs></defs>
    <g id="Artboard" stroke="none" stroke-width="1" fill="none" fill-rule="evenodd" transform="translate(-30.000000, -81.000000)">
        <g id="logo" transform="translate(30.000000, 81.000000)" fill="#000000">
            <path d="M17.955,0.115 C19.075,0.115 19.46,0.5 19.46,1.62 L19.46,4.77 C19.46,5.89 19.075,6.24 17.955,6.24 L9.275,6.24 L9.03,8.69 L11.375,8.69 C17.815,8.69 20.545,12.365 20.545,17.02 C20.545,21.815 17.115,25.525 11.06,25.525 C5.425,25.525 2.345,23.67 0.875,19.75 C0.49,18.7 0.77,18.245 1.785,17.86 L5.53,16.46 C6.475,16.11 6.93,16.25 7.35,17.335 C7.875,18.595 8.75,19.295 10.745,19.295 C12.355,19.295 13.335,18.455 13.335,16.705 C13.335,15.13 12.355,14.325 10.535,14.325 L3.255,14.325 C1.995,14.325 1.61,13.8 1.715,12.61 L2.8,2.215 C2.975,0.64 3.5,0.115 5.145,0.115 L17.955,0.115 Z M44.2271052,14.675 C45.3121052,14.675 45.6971052,15.06 45.6971052,16.145 L45.6971052,18.595 C45.6971052,19.68 45.3121052,20.065 44.2271052,20.065 L42.4421052,20.065 L42.4421052,23.53 C42.4421052,24.615 42.0571052,25 40.9721052,25 L37.3671052,25 C36.2471052,25 35.8971052,24.615 35.8971052,23.53 L35.8971052,20.065 L25.2921052,20.065 C24.2071052,20.065 23.8221052,19.68 23.8221052,18.595 L23.8221052,16.285 C23.8221052,15.13 23.8921052,14.71 24.5921052,13.905 L35.2321052,1.2 C35.9321052,0.395 36.3521052,0.15 37.5071052,0.15 L40.9721052,0.15 C42.0571052,0.15 42.4421052,0.535 42.4421052,1.62 L42.4421052,14.675 L44.2271052,14.675 Z M35.8971052,14.675 L35.8971052,8.76 L30.9971052,14.675 L35.8971052,14.675 Z M73.7542103,0.115 C74.8742103,0.115 75.2592103,0.465 75.2592103,1.585 L75.2592103,23.565 C75.2592103,24.65 74.8742103,25 73.7542103,25 L69.9392103,25 C68.8192103,25 68.4692103,24.65 68.4692103,23.565 L68.4692103,18.56 C68.4692103,16.25 68.6792103,14.045 70.0092103,9.39 L69.6242103,9.39 C69.2742103,10.545 68.0142103,13.73 67.2792103,15.165 L65.3192103,19.12 C64.9342103,19.82 64.5842103,20.135 63.6392103,20.135 L61.2942103,20.135 C60.3492103,20.135 59.9992103,19.89 59.6142103,19.12 L57.5492103,15.165 C56.8142103,13.835 55.7292103,10.615 55.3792103,9.39 L55.0292103,9.39 C56.2892103,14.43 56.4642103,16.18 56.4642103,18.595 L56.4642103,23.565 C56.4642103,24.65 56.0792103,25 54.9592103,25 L51.3892103,25 C50.2692103,25 49.8842103,24.65 49.8842103,23.565 L49.8842103,1.585 C49.8842103,0.465 50.2692103,0.115 51.3892103,0.115 L54.6792103,0.115 C55.9042103,0.115 56.2542103,0.325 56.7442103,1.2 L62.5192103,12.54 L68.2942103,1.235 C68.7842103,0.29 69.0992103,0.115 70.2542103,0.115 L73.7542103,0.115 Z M96.7713155,0.15 C97.8913155,0.15 98.2763155,0.535 98.2763155,1.62 L98.2763155,4.77 C98.2763155,5.89 97.8913155,6.275 96.7713155,6.275 L87.5313155,6.275 L87.5313155,9.39 L94.9163155,9.39 C96.0363155,9.39 96.4213155,9.775 96.4213155,10.86 L96.4213155,14.01 C96.4213155,15.13 96.0363155,15.515 94.9163155,15.515 L87.5313155,15.515 L87.5313155,18.875 L97.0863155,18.875 C98.1713155,18.875 98.5563155,19.225 98.5563155,20.345 L98.5563155,23.53 C98.5563155,24.615 98.1713155,25 97.0863155,25 L82.1063155,25 C80.9863155,25 80.6013155,24.615 80.6013155,23.53 L80.6013155,1.62 C80.6013155,0.535 80.9863155,0.15 82.1063155,0.15 L96.7713155,0.15 Z M114.783421,0.115 C119.613421,0.115 122.518421,2.495 122.518421,6.765 C122.518421,9.11 121.783421,10.685 119.998421,11.91 L119.998421,12.05 C122.238421,13.03 123.533421,15.025 123.533421,18.07 C123.533421,22.585 119.858421,25 114.923421,25 L104.528421,25 C103.408421,25 103.023421,24.615 103.023421,23.53 L103.023421,1.62 C103.023421,0.5 103.408421,0.115 104.528421,0.115 L114.783421,0.115 Z M115.483421,7.71 C115.483421,6.345 114.748421,5.75 113.348421,5.75 L109.953421,5.75 L109.953421,9.6 L113.348421,9.6 C114.748421,9.6 115.483421,9.075 115.483421,7.71 Z M116.253421,17.265 C116.253421,15.865 115.518421,15.235 114.013421,15.235 L109.953421,15.235 L109.953421,19.33 L114.013421,19.33 C115.518421,19.33 116.253421,18.735 116.253421,17.265 Z M144.065526,0.15 C145.185526,0.15 145.570526,0.535 145.570526,1.62 L145.570526,4.77 C145.570526,5.89 145.185526,6.275 144.065526,6.275 L134.825526,6.275 L134.825526,9.39 L142.210526,9.39 C143.330526,9.39 143.715526,9.775 143.715526,10.86 L143.715526,14.01 C143.715526,15.13 143.330526,15.515 142.210526,15.515 L134.825526,15.515 L134.825526,18.875 L144.380526,18.875 C145.465526,18.875 145.850526,19.225 145.850526,20.345 L145.850526,23.53 C145.850526,24.615 145.465526,25 144.380526,25 L129.400526,25 C128.280526,25 127.895526,24.615 127.895526,23.53 L127.895526,1.62 C127.895526,0.535 128.280526,0.15 129.400526,0.15 L144.065526,0.15 Z M155.777631,0.15 C156.897631,0.15 157.247631,0.535 157.247631,1.62 L157.247631,18.875 L165.682631,18.875 C166.767631,18.875 167.152631,19.225 167.152631,20.345 L167.152631,23.53 C167.152631,24.615 166.767631,25 165.682631,25 L151.822631,25 C150.702631,25 150.317631,24.615 150.317631,23.53 L150.317631,1.62 C150.317631,0.535 150.702631,0.15 151.822631,0.15 L155.777631,0.15 Z" id="54mebel"></path>
        </g>
    </g>
</svg>