<?xml version="1.0" encoding="UTF-8"?>
<svg width="13px" height="17px" viewBox="0 0 13 17" version="1.1" xmlns="http://www.w3.org/2000/svg" xmlns:xlink="http://www.w3.org/1999/xlink">
    <!-- Generator: Sketch 48.2 (47327) - http://www.bohemiancoding.com/sketch -->
    <title>resource/mobile</title>
    <desc>Created with Sketch.</desc>
    <defs></defs>
    <g id="Artboard" stroke="none" stroke-width="1" fill="none" fill-rule="evenodd" transform="translate(-700.000000, -31.000000)">
        <g id="Group-81" transform="translate(700.000000, 31.000000)" fill="#000000" fill-rule="nonzero">
            <path d="M10.9,14.9346371 C10.962396,14.9346371 11,14.8981712 11,14.8686658 L11,2.07701 C11,2.0475046 10.962396,2.01103868 10.9,2.01103868 L2.1,2.01103868 C2.03817502,2.01103868 2,2.04803274 2,2.07701 L2,14.8686658 C2,14.897643 2.03817502,14.9346371 2.1,14.9346371 L10.9,14.9346371 Z M10.9,16.9346371 L2.1,16.9346371 C0.947424984,16.9346371 0,16.0165209 0,14.8686658 L0,2.07701 C0,0.929154913 0.947424984,0.0110386788 2.1,0.0110386788 L10.9,0.0110386788 C12.0534444,0.0110386788 13,0.928946379 13,2.07701 L13,14.8686658 C13,16.0167294 12.0534444,16.9346371 10.9,16.9346371 Z M5.4,13.7367232 L7.6,13.7367232 C8.15228475,13.7367232 8.6,13.2890079 8.6,12.7367232 C8.6,12.1844384 8.15228475,11.7367232 7.6,11.7367232 L5.4,11.7367232 C4.84771525,11.7367232 4.4,12.1844384 4.4,12.7367232 C4.4,13.2890079 4.84771525,13.7367232 5.4,13.7367232 Z" id="Combined-Shape"></path>
        </g>
    </g>
</svg>