<?xml version="1.0" encoding="UTF-8"?>
<svg width="37px" height="20px" viewBox="0 0 37 20" version="1.1" xmlns="http://www.w3.org/2000/svg" xmlns:xlink="http://www.w3.org/1999/xlink">
    <!-- Generator: Sketch 48.2 (47327) - http://www.bohemiancoding.com/sketch -->
    <title>resource/nav_5</title>
    <desc>Created with Sketch.</desc>
    <defs></defs>
    <g id="Artboard" stroke="none" stroke-width="1" fill="none" fill-rule="evenodd" transform="translate(-249.000000, -445.000000)">
        <g id="icon" transform="translate(249.000000, 445.000000)" fill="#000000">
            <path d="M1.24252804,10.8869049 L18.4519556,10.8869049 L18.4954441,10.8824307 L18.5393467,10.8869049 L35.757472,10.8869049 L35.757472,14.8140164 L1.24252804,14.8140164 L1.24252804,10.8869049 Z M32.8064679,1.22023144 L32.8064679,6.7836733 L21.8684935,6.7836733 C20.4619518,6.7836733 19.2049276,7.51906612 18.4958582,8.63598463 C17.7867889,7.51906612 16.5301789,6.7836733 15.1236371,6.7836733 L4.19353214,6.7836733 L4.19353214,1.22023144 L32.8064679,1.22023144 Z M36.9635525,10.073824 C36.7063492,8.52575705 35.538787,7.30186492 34.0489959,6.91505155 L34.0489959,0.610115719 C34.0489959,0.272925098 33.7706696,0 33.4277319,0 L3.57226812,0 C3.22933038,0 2.9510041,0.272925098 2.9510041,0.610115719 L2.9510041,6.91301784 C1.43719077,7.3034919 0.252233192,8.55666958 0.0161528645,10.1380895 L0.0107685764,10.1677818 L0.00538428818,10.1978809 L0.00497011216,10.2279799 L0,19.3898843 C0,19.7270749 0.278326281,20 0.62126402,20 C0.964615936,20 1.24252804,19.7270749 1.24252804,19.3898843 L1.24252804,16.0342478 L2.9510041,16.0342478 L2.9510041,18.1696528 C2.9510041,18.5068435 3.22933038,18.7797686 3.57226812,18.7797686 C3.91562003,18.7797686 4.19353214,18.5068435 4.19353214,18.1696528 L4.19353214,16.0342478 L32.8064679,16.0342478 L32.8064679,18.1696528 C32.8064679,18.5068435 33.08438,18.7797686 33.4277319,18.7797686 C33.7706696,18.7797686 34.0489959,18.5068435 34.0489959,18.1696528 L34.0489959,16.0342478 L35.757472,16.0342478 L35.757472,19.3898843 C35.757472,19.7270749 36.0353841,20 36.378736,20 C36.7216737,20 37,19.7270749 37,19.3898843 C37,19.3898843 36.9855038,10.1364625 36.9635525,10.073824 Z" id="Fill-129"></path>
        </g>
    </g>
</svg>