<?xml version="1.0" encoding="UTF-8"?>
<svg width="34px" height="32px" viewBox="0 0 34 32" version="1.1" xmlns="http://www.w3.org/2000/svg" xmlns:xlink="http://www.w3.org/1999/xlink">
    <!-- Generator: Sketch 48.2 (47327) - http://www.bohemiancoding.com/sketch -->
    <title>resource/nav_2</title>
    <desc>Created with Sketch.</desc>
    <defs></defs>
    <g id="Artboard" stroke="none" stroke-width="1" fill="none" fill-rule="evenodd" transform="translate(-81.000000, -439.000000)">
        <g id="icon" transform="translate(81.000000, 439.000000)" fill="#000000">
            <path d="M27.8587263,30.8705882 L32.8603352,30.8705882 L32.8603352,1.12941176 L27.8587263,1.12941176 L27.8587263,30.8705882 Z M17.5698324,11.0430118 L26.7190615,11.0430118 L26.7190615,9.28602353 L17.5698324,9.28602353 L17.5698324,11.0430118 Z M17.5698324,30.8705882 L26.7190615,30.8705882 L26.7190615,20.4547765 L17.5698324,20.4547765 L17.5698324,30.8705882 Z M1.1396648,30.8705882 L16.4301676,30.8705882 L16.4301676,1.12941176 L1.1396648,1.12941176 L1.1396648,30.8705882 Z M33.4301676,0 L0.569832402,0 C0.254905028,0 0,0.252611765 0,0.564705882 L0,31.4352941 C0,31.7470118 0.254905028,32 0.569832402,32 L33.4301676,32 C33.745095,32 34,31.7470118 34,31.4352941 L34,0.564705882 C34,0.252611765 33.745095,0 33.4301676,0 Z" id="Fill-176"></path>
        </g>
    </g>
</svg>