<?xml version="1.0" encoding="UTF-8"?>
<svg width="37px" height="32px" viewBox="0 0 37 32" version="1.1" xmlns="http://www.w3.org/2000/svg" xmlns:xlink="http://www.w3.org/1999/xlink">
    <!-- Generator: Sketch 48.2 (47327) - http://www.bohemiancoding.com/sketch -->
    <title>resource/nav_6</title>
    <desc>Created with Sketch.</desc>
    <defs></defs>
    <g id="Artboard" stroke="none" stroke-width="1" fill="none" fill-rule="evenodd" transform="translate(-303.000000, -439.000000)">
        <g id="icon" transform="translate(303.000000, 439.000000)" fill="#000000">
            <path d="M13.0985024,9.70668322 C12.7268531,9.70668322 12.4244106,9.40284146 12.4244106,9.02947276 L12.4244106,8.06873686 L24.9751011,8.06873686 L24.9751011,9.02947276 C24.9751011,9.40284146 24.6726586,9.70668322 24.3010093,9.70668322 L13.0985024,9.70668322 Z M12.4244106,2.03163137 C12.4244106,1.65826267 12.7268531,1.35442091 13.0985024,1.35442091 L24.3010093,1.35442091 C24.6726586,1.35442091 24.9751011,1.65826267 24.9751011,2.03163137 L24.9751011,7.16578959 L12.4244106,7.16578959 L12.4244106,2.03163137 Z M4.34429694,30.6455791 L17.8261329,30.6455791 L17.8261329,19.9605525 L4.34429694,19.9605525 L4.34429694,30.6455791 Z M4.86379702,18.4183185 L15.4245685,18.4183185 L15.4245685,16.4616318 L4.86379702,16.4616318 L4.86379702,18.4183185 Z M36.3259082,13.2241143 L23.6255693,13.2241143 C23.7064604,13.1121489 23.7554444,12.9758038 23.7554444,12.827269 C23.7554444,12.4529974 23.4539006,12.1500586 23.0813526,12.1500586 L19.3738477,12.1500586 L19.3738477,11.0611041 L24.3010093,11.0611041 C25.4159571,11.0611041 26.3232847,10.1500303 26.3232847,9.02947276 L26.3232847,2.03163137 C26.3232847,0.911525275 25.4159571,0 24.3010093,0 L13.0985024,0 C11.9835546,0 11.076227,0.911525275 11.076227,2.03163137 L11.076227,9.02947276 C11.076227,10.1500303 11.9835546,11.0611041 13.0985024,11.0611041 L18.0256641,11.0611041 L18.0256641,12.1500586 L14.3181592,12.1500586 C13.9460605,12.1500586 13.6440674,12.4529974 13.6440674,12.827269 C13.6440674,12.9758038 13.6935008,13.1121489 13.7739424,13.2241143 L0.674091798,13.2241143 C0.301543731,13.2241143 0,13.5270531 0,13.9013248 C0,14.275145 0.301543731,14.5785353 0.674091798,14.5785353 L2.99611334,14.5785353 L2.99611334,31.3227895 C2.99611334,31.6970612 3.29765708,32 3.67020514,32 L18.5002247,32 C18.8723234,32 19.1743165,31.6970612 19.1743165,31.3227895 L19.1743165,19.9605525 L32.9554492,19.9605525 L32.9554492,31.3227895 C32.9554492,31.6970612 33.2574423,32 33.629541,32 C34.0020891,32 34.3036328,31.6970612 34.3036328,31.3227895 L34.3036328,14.5785353 L36.3259082,14.5785353 C36.6984563,14.5785353 37,14.275145 37,13.9013248 C37,13.5270531 36.6984563,13.2241143 36.3259082,13.2241143 Z" id="Fill-123"></path>
        </g>
    </g>
</svg>