<?xml version="1.0" encoding="UTF-8"?>
<svg width="43px" height="32px" viewBox="0 0 43 32" version="1.1" xmlns="http://www.w3.org/2000/svg" xmlns:xlink="http://www.w3.org/1999/xlink">
    <!-- Generator: Sketch 48.2 (47327) - http://www.bohemiancoding.com/sketch -->
    <title>resource/nav_3</title>
    <desc>Created with Sketch.</desc>
    <defs></defs>
    <g id="Artboard" stroke="none" stroke-width="1" fill="none" fill-rule="evenodd" transform="translate(-134.000000, -439.000000)">
        <g id="bunk" transform="translate(134.000000, 439.000000)" fill="#000000" fill-rule="nonzero">
            <path d="M41.4074074,0 L41.4074074,4.9488 C41.1557778,4.8584 40.8882222,4.8 40.605537,4.8 L38.7390185,4.8 C34.3107792,4.75472975 22.7190052,4.8 17.7980185,4.8 L11.1481481,4.8 L11.1481481,0 L9.55555556,0 L9.55555556,4.8 L2.39446296,4.8 C2.11177778,4.8 1.84422222,4.8584 1.59259259,4.9488 L1.59259259,0 L0,0 L0,7.1984 L0,8.8016 L0,14.4 L0,16 L0,19.2 L0,20.8 L0,26.3984 L0,28.0016 L0,32 L1.59259259,32 L1.59259259,30.2512 C1.84422222,30.3416 2.11177778,30.4 2.39446296,30.4 L9.55555556,30.4 L9.55555556,32 L11.1481481,32 L11.1481481,30.4 L40.605537,30.4 C40.8882222,30.4 41.1557778,30.3416 41.4074074,30.2512 L41.4074074,32 L43,32 L43,28.0016 L43,26.3984 L43,8.8016 L43,7.1984 L43,0 L41.4074074,0 Z M20.3055556,6.4 L36.2314815,6.4 L40.605537,6.4 C41.0474815,6.4 41.4074074,6.7576 41.4074074,7.1984 L41.4074074,8.8016 C41.4074074,9.2424 41.0474815,9.6 40.605537,9.6 L11.1481481,9.6 L11.1481481,6.4 L20.3055556,6.4 Z M36.2314815,24 L20.3055556,24 C19.6470185,24 36.8900185,24 36.2314815,24 Z M17.7980185,24 L11.1481481,24 L11.1481481,20.8 L11.1481481,19.2 L11.1481481,16 L11.1481481,14.4 L11.1481481,11.2 L39.0185185,11.2 L39.0185185,24 L38.7390185,24 C33.2402512,24 22.7356342,23.982693 17.7980185,24 Z M3.98148148,20.8 L9.55555556,20.8 L9.55555556,24 L3.98148148,24 L3.98148148,20.8 Z M3.98148148,11.2 L9.55555556,11.2 L9.55555556,14.4 L3.98148148,14.4 L3.98148148,11.2 Z M9.55555556,16 L9.55555556,19.2 L3.98148148,19.2 L3.98148148,16 L9.55555556,16 Z M40.6111111,11.1992 C40.8914074,11.1984 41.1573704,11.1408 41.4074074,11.0512 L41.4074074,24.148 C41.1573704,24.0584 40.8914074,24.0008 40.6111111,24 L40.6111111,11.1992 Z M2.39446296,6.4 L9.55555556,6.4 L9.55555556,9.6 L2.39446296,9.6 C1.95251852,9.6 1.59259259,9.2424 1.59259259,8.8016 L1.59259259,7.1984 C1.59259259,6.7576 1.95251852,6.4 2.39446296,6.4 Z M1.59259259,11.0512 C1.84262963,11.1408 2.10859259,11.1984 2.38888889,11.1992 L2.38888889,14.4 L1.59259259,14.4 L1.59259259,11.0512 Z M1.59259259,16 L2.38888889,16 L2.38888889,19.2 L1.59259259,19.2 L1.59259259,16 Z M2.38888889,20.8 L2.38888889,24.0008 C2.10859259,24.0016 1.84262963,24.0592 1.59259259,24.1488 L1.59259259,20.8 L2.38888889,20.8 Z M2.39446296,28.8 C1.95251852,28.8 1.59259259,28.4424 1.59259259,28.0016 L1.59259259,26.3984 C1.59259259,25.9576 1.95251852,25.6 2.39446296,25.6 L9.55555556,25.6 L9.55555556,28.8 L2.39446296,28.8 Z M40.605537,28.8 L11.1481481,28.8 L11.1481481,25.6 L20.3055556,25.6 L36.2314815,25.6 L40.605537,25.6 C41.0474815,25.6 41.4074074,25.9576 41.4074074,26.3984 L41.4074074,28.0016 C41.4074074,28.4424 41.0474815,28.8 40.605537,28.8 Z" id="Shape"></path>
        </g>
    </g>
</svg>