<?xml version="1.0" encoding="UTF-8"?>
<svg width="34px" height="33px" viewBox="0 0 34 33" version="1.1" xmlns="http://www.w3.org/2000/svg" xmlns:xlink="http://www.w3.org/1999/xlink">
    <!-- Generator: Sketch 48.2 (47327) - http://www.bohemiancoding.com/sketch -->
    <title>resource/nav_4</title>
    <desc>Created with Sketch.</desc>
    <defs></defs>
    <g id="Artboard" stroke="none" stroke-width="1" fill="none" fill-rule="evenodd" transform="translate(-196.000000, -440.000000)">
        <g id="Group" transform="translate(196.000000, 440.000000)" fill="#000000">
            <path d="M32.6786297,31.2764666 L18.5428753,31.2764666 L18.5428753,3.4584045 C18.5428753,1.57773491 18.9232399,1.19737028 20.8039095,1.19737028 L30.4175955,1.19737028 C32.2982651,1.19737028 32.6786297,1.57773491 32.6786297,3.4584045 L32.6786297,31.2764666 Z M1.19737028,31.2764666 L17.345505,31.2764666 L17.345505,25.2998091 L1.19737028,25.2998091 L1.19737028,31.2764666 Z M20.8039095,0 L30.4175955,0 C32.9384591,0 33.876,0.93754093 33.876,3.4584045 L33.876,31.8919574 C33.876,32.2224316 33.6077891,32.4906426 33.2773149,32.4906426 C33.2374025,32.4906426 33.1974902,32.4906426 33.1575778,32.4906426 C28.9200844,32.4906426 24.6829901,32.4906426 20.4454967,32.4906426 C17.6879529,32.4906426 14.9308083,32.4906426 12.1736637,32.4906426 C8.31533748,32.4906426 4.45701131,32.4906426 0.598685141,32.4906426 C0.268210943,32.4906426 0,32.2224316 0,31.8919574 L0,24.701124 C0,24.3702507 0.268210943,24.1024389 0.598685141,24.1024389 L1.18898869,24.1024389 C3.39937309,24.1024389 5.417672,24.1024389 6.68212442,24.1024389 L8.67255295,24.1024389 L9.86992323,24.1024389 L17.345505,24.1024389 L17.345505,3.4584045 C17.345505,0.93754093 18.2830459,0 20.8039095,0 Z M21,18.027 C21,18.3033333 21.2236667,18.527 21.5,18.527 C21.776,18.527 22,18.3033333 22,18.027 L22,14.1846667 C22,13.9086667 21.776,13.6846667 21.5,13.6846667 C21.2236667,13.6846667 21,13.9086667 21,14.1846667 L21,18.027 Z M8.5,27.8423333 C8.22366667,27.8423333 8,28.066 8,28.3423333 C8,28.6183333 8.22366667,28.8423333 8.5,28.8423333 L10.3423333,28.8423333 C10.6183333,28.8423333 10.8423333,28.6183333 10.8423333,28.3423333 C10.8423333,28.066 10.6183333,27.8423333 10.3423333,27.8423333 L8.5,27.8423333 Z M4.23347369,4.16714505 L4.23347369,5.26542104 C4.23347369,5.40349223 4.12154488,5.51542104 3.98347369,5.51542104 L3.46636696,5.51542104 C3.32829577,5.51542104 3.21636696,5.40349223 3.21644083,5.26542104 L3.21644083,4.16714505 L2,4.16714505 C1.86192881,4.16714505 1.75,4.05521624 1.75,3.91714505 L1.75,2 C1.75,1.86192881 1.86192881,1.75 2,1.75 L16,1.75 C16.1380712,1.75 16.25,1.86192881 16.25,2 L16.25,3.91714505 C16.25,4.05521624 16.1380712,4.16714505 16,4.16714505 L14.7597723,4.16714505 L14.7597723,5.26542104 C14.7597723,5.40349223 14.6478434,5.51542104 14.5097723,5.51542104 L13.9926655,5.51542104 C13.8545943,5.51542104 13.7426655,5.40349223 13.7426655,5.26542104 L13.7426655,4.16714505 L11.2509814,4.16714505 L11.2509814,5.03280754 C12.054371,6.15764359 12.5954045,8.23140416 12.9403391,10.8318624 C13.0447769,11.6189056 13.0977173,12.4256804 13.0977173,13.2300998 L13.0977173,20 C13.0977173,20.1380712 12.9857885,20.25 12.8477173,20.25 L9.10475105,20.25 C8.9619789,20.25 8.84820044,20.1306356 8.85503791,19.9880273 L8.86789542,19.7198597 C8.87153631,19.6418675 8.87708239,19.4971729 8.883512,19.2805052 C8.89413281,18.9226004 8.90301773,18.4973816 8.90889896,18.0061391 C8.92565702,16.6063849 8.91521883,14.9564682 8.86746292,13.0658754 C8.81821288,11.1158331 9.05398458,9.2056067 9.48461431,7.4092776 C9.74873562,6.30752185 10.0296073,5.46417548 10.2338747,4.96647816 L10.2338747,4.16714505 L7.74226451,4.16714505 L7.74226451,5.26542104 C7.74226451,5.40349223 7.63033569,5.51542104 7.49226451,5.51542104 L6.97515777,5.51542104 C6.83708658,5.51542104 6.72515777,5.40349223 6.72515777,5.26542104 L6.72515777,4.16714505 L4.23347369,4.16714505 Z M12.0806106,13.2301729 C12.0806106,12.4696683 12.0306321,11.7072459 11.9320836,10.9644757 C11.685794,9.10854586 11.3212654,7.45362904 10.8295513,6.3538752 C10.2266735,8.28989602 9.82265942,10.601608 9.88426256,13.0404551 C9.95120651,15.6915914 9.94521748,17.7709849 9.90237999,19.2381714 L12.0806106,19.2381714 L12.0806106,13.2301729 Z" id="Fill-83"></path>
        </g>
    </g>
</svg>