<?xml version="1.0" encoding="UTF-8"?>
<svg width="32px" height="32px" viewBox="0 0 32 32" version="1.1" xmlns="http://www.w3.org/2000/svg" xmlns:xlink="http://www.w3.org/1999/xlink">
    <!-- Generator: Sketch 48.2 (47327) - http://www.bohemiancoding.com/sketch -->
    <title>resource/nav_1</title>
    <desc>Created with Sketch.</desc>
    <defs></defs>
    <g id="Artboard" stroke="none" stroke-width="1" fill="none" fill-rule="evenodd" transform="translate(-30.000000, -439.000000)">
        <g id="icon" transform="translate(30.000000, 439.000000)" fill="#000000">
            <path d="M15.2470588,30.6783256 L30.6823529,30.6783256 L30.6823529,20.88 L15.2470588,20.88 L15.2470588,30.6783256 Z M1.31764706,30.6783256 L14.1176471,30.6783256 L14.1176471,17.8411163 L1.31764706,17.8411163 L1.31764706,30.6783256 Z M15.2470588,20.135814 L30.6823529,20.135814 L30.6823529,17.8411163 L15.2470588,17.8411163 L15.2470588,20.135814 Z M31.2470588,16.7248372 C31.5591529,16.7248372 31.8117647,16.9748837 31.8117647,17.2829767 L31.8117647,31.2364651 C31.8117647,31.5445581 31.5591529,31.7946047 31.2470588,31.7946047 L0.752941176,31.7946047 C0.440847059,31.7946047 0.188235294,31.5445581 0.188235294,31.2364651 L0.188235294,17.2829767 C0.188235294,16.9748837 0.440847059,16.7248372 0.752941176,16.7248372 L31.2470588,16.7248372 Z M18.7294118,19.0466977 C18.7294118,18.6530233 18.4067765,18.3337674 18.0077176,18.3337674 C17.6094118,18.3337674 17.2864,18.6530233 17.2864,19.0466977 C17.2864,19.4407442 17.6094118,19.7596279 18.0077176,19.7596279 C18.4067765,19.7596279 18.7294118,19.4407442 18.7294118,19.0466977 Z M23.6864,19.0466977 C23.6864,18.6530233 23.3633882,18.3337674 22.9647059,18.3337674 C22.5664,18.3337674 22.2433882,18.6530233 22.2433882,19.0466977 C22.2433882,19.4407442 22.5664,19.7596279 22.9647059,19.7596279 C23.3633882,19.7596279 23.6864,19.4407442 23.6864,19.0466977 Z M28.6433882,19.0466977 C28.6433882,18.6530233 28.3203765,18.3337674 27.9216941,18.3337674 C27.5230118,18.3337674 27.2003765,18.6530233 27.2003765,19.0466977 C27.2003765,19.4407442 27.5230118,19.7596279 27.9216941,19.7596279 C28.3203765,19.7596279 28.6433882,19.4407442 28.6433882,19.0466977 Z M3.51397647,26.0580465 C3.82569412,26.0580465 4.07868235,25.808 4.07868235,25.499907 L4.07868235,23.0195349 C4.07868235,22.7114419 3.82569412,22.4613953 3.51397647,22.4613953 C3.20188235,22.4613953 2.94927059,22.7114419 2.94927059,23.0195349 L2.94927059,25.499907 C2.94927059,25.808 3.20188235,26.0580465 3.51397647,26.0580465 Z M19.1058824,25.872 C19.1058824,26.0777674 18.9372235,26.244093 18.7294118,26.244093 C18.5216,26.244093 18.3529412,26.0777674 18.3529412,25.872 L18.3529412,23.8258605 C18.3529412,23.620093 18.5216,23.4537674 18.7294118,23.4537674 C18.9372235,23.4537674 19.1058824,23.620093 19.1058824,23.8258605 L19.1058824,25.872 Z M28.2823529,22.4613953 L17.6470588,22.4613953 C17.3349647,22.4613953 17.0823529,22.7114419 17.0823529,23.0195349 L17.0823529,28.7248372 C17.0823529,29.0329302 17.3349647,29.2829767 17.6470588,29.2829767 L28.2823529,29.2829767 C28.5944471,29.2829767 28.8470588,29.0329302 28.8470588,28.7248372 L28.8470588,23.0195349 C28.8470588,22.7114419 28.5944471,22.4613953 28.2823529,22.4613953 Z M31.5625412,11.2956279 C31.7172706,11.3953488 31.8192941,11.568 31.8192941,11.7637209 C31.8192941,12.071814 31.5666824,12.3218605 31.2545882,12.3218605 L14.6823529,12.3218605 C14.4463059,12.3218605 14.2347294,12.1767442 14.1526588,11.9579535 C14.0709647,11.7387907 14.1353412,11.4924651 14.3141647,11.3406512 L18.7606588,7.56613953 L18.7606588,0.911627907 C18.7606588,0.603534884 19.0136471,0.353488372 19.3253647,0.353488372 L26.6981647,0.353488372 C27.0102588,0.353488372 27.2628706,0.603534884 27.2628706,0.911627907 L27.2628706,7.60930233 L27.2594824,7.64316279 L31.5625412,11.2956279 Z M16.2066824,11.2055814 L29.7227294,11.2055814 L26.1436235,8.16744186 L19.7857882,8.16744186 L16.2066824,11.2055814 Z M19.8900706,7.05116279 L19.8900706,1.46976744 L26.1334588,1.46976744 L26.1334588,7.05116279 L19.8900706,7.05116279 Z M21.4117647,5.376 C21.6195765,5.376 21.7882353,5.20967442 21.7882353,5.00390698 L21.7882353,2.35274419 C21.7882353,2.14734884 21.6195765,1.98065116 21.4117647,1.98065116 C21.2039529,1.98065116 21.0352941,2.14734884 21.0352941,2.35274419 L21.0352941,5.00390698 C21.0352941,5.20967442 21.2039529,5.376 21.4117647,5.376 Z M19.6412235,10.811907 C19.5478588,10.811907 19.4541176,10.7776744 19.3814588,10.7088372 C19.2312471,10.5666977 19.2256,10.3315349 19.3690353,10.1826977 L20.8237176,8.67683721 C20.9667765,8.52762791 21.2054588,8.5227907 21.3556706,8.66455814 C21.5058824,8.80669767 21.5115294,9.04223256 21.3680941,9.19069767 L19.9137882,10.6965581 C19.8396235,10.7732093 19.7406118,10.811907 19.6412235,10.811907 Z" id="Combined-Shape"></path>
        </g>
    </g>
</svg>