<?xml version="1.0" encoding="UTF-8"?>
<svg width="23px" height="22px" viewBox="0 0 23 22" version="1.1" xmlns="http://www.w3.org/2000/svg" xmlns:xlink="http://www.w3.org/1999/xlink">
    <!-- Generator: Sketch 48.2 (47327) - http://www.bohemiancoding.com/sketch -->
    <title>resource/orde</title>
    <desc>Created with Sketch.</desc>
    <defs></defs>
    <g id="Artboard" stroke="none" stroke-width="1" fill="none" fill-rule="evenodd" transform="translate(-284.000000, -237.000000)">
        <g id="Group-2" transform="translate(284.000000, 237.000000)" fill="#000000">
            <g id="Group-84">
                <path d="M14.0910571,3.85421081 L3.33360476,14.4160463 L3.33360476,19.3068231 L8.3643538,19.3068231 L19.0971114,8.76923338 L14.0910571,3.85421081 Z M15.025176,1.0342386 L21.9343903,7.81781356 C22.4666762,8.34042022 22.4666762,9.19804653 21.9343903,9.72065319 L9.84360461,21.5915763 C9.59429601,21.8363514 9.25887036,21.9734898 8.90948571,21.9734898 L2.00027143,21.9734898 C1.26389176,21.9734898 0.666938095,21.3765361 0.666938095,20.6401565 L0.666938095,13.8565815 C0.666938095,13.4987183 0.810793927,13.1558768 1.06615253,12.9051617 L13.1569382,1.0342386 C13.6755876,0.52502057 14.5065267,0.52502057 15.025176,1.0342386 Z" id="Combined-Shape" fill-rule="nonzero"></path>
                <path d="M8.83837396,7.17644615 C8.31291931,6.66054653 8.30517342,5.81636209 8.82107304,5.29090744 C9.33697266,4.76545278 10.1811571,4.7577069 10.7066118,5.27360652 L17.615826,12.0571815 C18.1412807,12.5730811 18.1490266,13.4172655 17.633127,13.9427202 C17.1172273,14.4681749 16.2730429,14.4759207 15.7475882,13.9600211 L8.83837396,7.17644615 Z" id="Stroke-106"></path>
            </g>
        </g>
    </g>
</svg>